M48
;GenerationSoftware,Autodesk,EAGLE,9.1.1*%
;CreationDate,2018-08-21T07:34:15Z*%
FMAT,2
ICI,OFF
METRIC,TZ,000.000
T4C0.305
T3C0.889
T2C1.000
T1C3.000
%
G90
M71
T1
X2000Y2000
X2000Y22320
T2
X3700Y14200
X3700Y17700
X24300Y17600
X24300Y14100
T3
X21620Y1500
X10190Y21500
X12730Y21500
X15270Y21500
X17810Y21500
X6380Y1500
X8920Y1500
X11460Y1500
X14000Y1500
X16540Y1500
X19080Y1500
T4
X15977Y12929
X12725Y889
X12979Y4115
X17577Y3632
X15265Y889
X26467Y6985
X18339Y12065
X26467Y9779
X5105Y6071
X11709Y19787
X14021Y22174
X11532Y22276
X7874Y7645
X7498Y5283
X9931Y9779
X20117Y8890
X20803Y9906
X10871Y6121
X24613Y7899
M30