G04 EAGLE Gerber RS-274X export*
G75*
%MOMM*%
%FSLAX34Y34*%
%LPD*%
%AMOC8*
5,1,8,0,0,1.08239X$1,22.5*%
G01*
%ADD10C,0.101600*%
%ADD11C,0.076200*%
%ADD12C,0.152400*%
%ADD13R,0.120000X0.020000*%
%ADD14R,0.340000X0.020000*%
%ADD15R,0.320000X0.020000*%
%ADD16R,0.140000X0.020000*%
%ADD17R,0.280000X0.020000*%
%ADD18R,0.360000X0.020000*%
%ADD19R,0.420000X0.020000*%
%ADD20R,0.380000X0.020000*%
%ADD21R,0.480000X0.020000*%
%ADD22R,0.540000X0.020000*%
%ADD23R,0.560000X0.020000*%
%ADD24R,0.400000X0.020000*%
%ADD25R,0.640000X0.020000*%
%ADD26R,0.620000X0.020000*%
%ADD27R,0.700000X0.020000*%
%ADD28R,0.660000X0.020000*%
%ADD29R,0.740000X0.020000*%
%ADD30R,1.080000X0.020000*%
%ADD31R,0.800000X0.020000*%
%ADD32R,1.100000X0.020000*%
%ADD33R,0.440000X0.020000*%
%ADD34R,0.840000X0.020000*%
%ADD35R,1.120000X0.020000*%
%ADD36R,0.460000X0.020000*%
%ADD37R,0.860000X0.020000*%
%ADD38R,0.900000X0.020000*%
%ADD39R,1.140000X0.020000*%
%ADD40R,0.920000X0.020000*%
%ADD41R,1.160000X0.020000*%
%ADD42R,0.960000X0.020000*%
%ADD43R,0.500000X0.020000*%
%ADD44R,0.520000X0.020000*%
%ADD45R,0.940000X0.020000*%
%ADD46R,0.260000X0.020000*%
%ADD47R,0.180000X0.020000*%
%ADD48R,0.580000X0.020000*%
%ADD49R,0.060000X0.020000*%
%ADD50R,0.600000X0.020000*%
%ADD51R,0.300000X0.020000*%
%ADD52R,0.040000X0.020000*%
%ADD53R,0.100000X0.020000*%
%ADD54R,0.160000X0.020000*%
%ADD55R,0.220000X0.020000*%
%ADD56R,0.980000X0.020000*%
%ADD57R,0.880000X0.020000*%
%ADD58R,0.760000X0.020000*%
%ADD59R,1.060000X0.020000*%
%ADD60R,0.720000X0.020000*%
%ADD61R,0.820000X0.020000*%
%ADD62R,1.180000X0.020000*%
%ADD63R,1.340000X0.020000*%
%ADD64R,1.460000X0.020000*%
%ADD65R,1.600000X0.020000*%
%ADD66R,1.700000X0.020000*%
%ADD67R,1.820000X0.020000*%
%ADD68R,1.900000X0.020000*%
%ADD69R,1.980000X0.020000*%
%ADD70R,2.100000X0.020000*%
%ADD71R,2.160000X0.020000*%
%ADD72R,2.260000X0.020000*%
%ADD73R,2.340000X0.020000*%
%ADD74R,2.400000X0.020000*%
%ADD75R,2.480000X0.020000*%
%ADD76R,2.540000X0.020000*%
%ADD77R,2.600000X0.020000*%
%ADD78R,2.680000X0.020000*%
%ADD79R,2.720000X0.020000*%
%ADD80R,2.800000X0.020000*%
%ADD81R,2.840000X0.020000*%
%ADD82R,2.900000X0.020000*%
%ADD83R,2.960000X0.020000*%
%ADD84R,3.000000X0.020000*%
%ADD85R,3.060000X0.020000*%
%ADD86R,3.120000X0.020000*%
%ADD87R,3.160000X0.020000*%
%ADD88R,3.200000X0.020000*%
%ADD89R,3.260000X0.020000*%
%ADD90R,3.300000X0.020000*%
%ADD91R,3.340000X0.020000*%
%ADD92R,3.380000X0.020000*%
%ADD93R,3.420000X0.020000*%
%ADD94R,3.460000X0.020000*%
%ADD95R,3.520000X0.020000*%
%ADD96R,3.540000X0.020000*%
%ADD97R,3.580000X0.020000*%
%ADD98R,3.620000X0.020000*%
%ADD99R,3.660000X0.020000*%
%ADD100R,3.700000X0.020000*%
%ADD101R,3.740000X0.020000*%
%ADD102R,3.780000X0.020000*%
%ADD103R,3.800000X0.020000*%
%ADD104R,3.840000X0.020000*%
%ADD105R,3.860000X0.020000*%
%ADD106R,3.900000X0.020000*%
%ADD107R,3.940000X0.020000*%
%ADD108R,3.960000X0.020000*%
%ADD109R,3.980000X0.020000*%
%ADD110R,4.020000X0.020000*%
%ADD111R,4.060000X0.020000*%
%ADD112R,4.080000X0.020000*%
%ADD113R,4.100000X0.020000*%
%ADD114R,4.120000X0.020000*%
%ADD115R,4.160000X0.020000*%
%ADD116R,4.180000X0.020000*%
%ADD117R,4.200000X0.020000*%
%ADD118R,4.240000X0.020000*%
%ADD119R,4.260000X0.020000*%
%ADD120R,4.280000X0.020000*%
%ADD121R,4.300000X0.020000*%
%ADD122R,4.320000X0.020000*%
%ADD123R,4.340000X0.020000*%
%ADD124R,4.380000X0.020000*%
%ADD125R,4.400000X0.020000*%
%ADD126R,4.440000X0.020000*%
%ADD127R,4.460000X0.020000*%
%ADD128R,4.500000X0.020000*%
%ADD129R,4.520000X0.020000*%
%ADD130R,4.540000X0.020000*%
%ADD131R,4.560000X0.020000*%
%ADD132R,4.580000X0.020000*%
%ADD133R,4.600000X0.020000*%
%ADD134R,4.620000X0.020000*%
%ADD135R,4.640000X0.020000*%
%ADD136R,4.660000X0.020000*%
%ADD137R,4.680000X0.020000*%
%ADD138R,4.700000X0.020000*%
%ADD139R,4.720000X0.020000*%
%ADD140R,4.740000X0.020000*%
%ADD141R,0.680000X0.020000*%
%ADD142R,1.480000X0.020000*%
%ADD143R,1.580000X0.020000*%
%ADD144R,1.560000X0.020000*%
%ADD145R,1.540000X0.020000*%
%ADD146R,1.520000X0.020000*%
%ADD147R,1.500000X0.020000*%
%ADD148R,1.440000X0.020000*%
%ADD149R,1.400000X0.020000*%
%ADD150R,1.420000X0.020000*%
%ADD151R,1.380000X0.020000*%
%ADD152R,1.360000X0.020000*%
%ADD153R,1.320000X0.020000*%
%ADD154R,1.300000X0.020000*%
%ADD155R,1.260000X0.020000*%
%ADD156R,1.220000X0.020000*%
%ADD157R,1.200000X0.020000*%
%ADD158R,1.040000X0.020000*%
%ADD159R,1.020000X0.020000*%
%ADD160R,1.000000X0.020000*%
%ADD161R,1.280000X0.020000*%
%ADD162R,0.780000X0.020000*%
%ADD163R,1.240000X0.020000*%
%ADD164R,0.020000X0.020000*%
%ADD165R,1.840000X0.020000*%
%ADD166R,1.800000X0.020000*%
%ADD167R,1.780000X0.020000*%
%ADD168R,1.760000X0.020000*%
%ADD169R,1.740000X0.020000*%
%ADD170R,1.680000X0.020000*%
%ADD171R,1.660000X0.020000*%
%ADD172R,1.620000X0.020000*%

G36*
X163770Y165070D02*
X163770Y165070D01*
X163770Y165071D01*
X163771Y165072D01*
X163766Y166433D01*
X163763Y167793D01*
X163758Y169155D01*
X163753Y170516D01*
X163748Y171878D01*
X163744Y173238D01*
X163739Y174600D01*
X163734Y175961D01*
X163731Y177323D01*
X163726Y178683D01*
X163721Y180045D01*
X163717Y181406D01*
X163712Y181411D01*
X163711Y181416D01*
X162488Y182126D01*
X161264Y182835D01*
X160042Y183545D01*
X158820Y184255D01*
X157597Y184964D01*
X156375Y185674D01*
X155151Y186383D01*
X153928Y187093D01*
X152706Y187803D01*
X151455Y188528D01*
X150206Y189254D01*
X148955Y189979D01*
X147705Y190703D01*
X146456Y191428D01*
X145205Y192154D01*
X143956Y192878D01*
X142705Y193602D01*
X141472Y194315D01*
X142764Y195054D01*
X144215Y195685D01*
X145671Y196306D01*
X147129Y196922D01*
X148587Y197536D01*
X150046Y198149D01*
X151506Y198762D01*
X152913Y199353D01*
X154319Y199943D01*
X155726Y200534D01*
X157131Y201124D01*
X158539Y201715D01*
X159945Y202305D01*
X161350Y202896D01*
X162757Y203486D01*
X163709Y203890D01*
X163712Y203895D01*
X163716Y203899D01*
X163715Y203901D01*
X163716Y203904D01*
X163709Y203907D01*
X163705Y203913D01*
X159229Y203913D01*
X157739Y203914D01*
X150281Y203914D01*
X148788Y203916D01*
X139838Y203916D01*
X139078Y203917D01*
X139049Y203917D01*
X138347Y203917D01*
X130889Y203917D01*
X129397Y203919D01*
X124922Y203919D01*
X124910Y203909D01*
X124911Y203908D01*
X124910Y203907D01*
X124910Y202545D01*
X124912Y201183D01*
X124912Y199819D01*
X124913Y198457D01*
X124913Y197095D01*
X124915Y195733D01*
X124915Y194369D01*
X124916Y193007D01*
X124916Y191645D01*
X124918Y190283D01*
X124920Y188921D01*
X124920Y187557D01*
X124925Y187552D01*
X124926Y187547D01*
X126213Y186802D01*
X127502Y186058D01*
X128789Y185312D01*
X130077Y184567D01*
X131366Y183821D01*
X132653Y183077D01*
X133941Y182332D01*
X135189Y181610D01*
X136436Y180889D01*
X137683Y180167D01*
X138930Y179444D01*
X140178Y178724D01*
X141426Y178001D01*
X142672Y177279D01*
X143920Y176557D01*
X145166Y175834D01*
X146240Y175198D01*
X147212Y174487D01*
X145853Y173908D01*
X144472Y173325D01*
X143093Y172744D01*
X140330Y171582D01*
X138949Y171003D01*
X137568Y170422D01*
X136187Y169842D01*
X134804Y169263D01*
X133420Y168682D01*
X132037Y168101D01*
X130655Y167518D01*
X129272Y166936D01*
X127889Y166353D01*
X126508Y165769D01*
X125128Y165180D01*
X125126Y165174D01*
X125121Y165171D01*
X125123Y165169D01*
X125122Y165166D01*
X125128Y165162D01*
X125133Y165157D01*
X126609Y165120D01*
X128089Y165106D01*
X129569Y165097D01*
X131050Y165089D01*
X132529Y165084D01*
X134009Y165078D01*
X135488Y165074D01*
X136968Y165071D01*
X138447Y165068D01*
X139927Y165065D01*
X141407Y165063D01*
X142888Y165063D01*
X144367Y165062D01*
X154808Y165062D01*
X156300Y165060D01*
X163759Y165060D01*
X163770Y165070D01*
G37*
G36*
X132291Y143933D02*
X132291Y143933D01*
X132292Y143932D01*
X133310Y144016D01*
X133653Y144045D01*
X133654Y144046D01*
X133655Y144045D01*
X134976Y144409D01*
X134976Y144410D01*
X134977Y144409D01*
X136228Y144970D01*
X136229Y144971D01*
X136230Y144971D01*
X137371Y145728D01*
X137372Y145729D01*
X137373Y145729D01*
X138373Y146666D01*
X138373Y146667D01*
X138374Y146667D01*
X139197Y147763D01*
X139197Y147764D01*
X139198Y147764D01*
X139819Y148985D01*
X139818Y148987D01*
X139819Y148987D01*
X140173Y150171D01*
X140173Y150173D01*
X140174Y150173D01*
X140186Y150258D01*
X140188Y150270D01*
X140190Y150282D01*
X140191Y150294D01*
X140193Y150306D01*
X140214Y150449D01*
X140216Y150461D01*
X140218Y150473D01*
X140219Y150485D01*
X140220Y150485D01*
X140221Y150497D01*
X140241Y150628D01*
X140242Y150640D01*
X140244Y150652D01*
X140246Y150664D01*
X140248Y150676D01*
X140267Y150807D01*
X140269Y150819D01*
X140270Y150831D01*
X140272Y150843D01*
X140274Y150855D01*
X140293Y150986D01*
X140295Y150998D01*
X140297Y151010D01*
X140298Y151022D01*
X140300Y151034D01*
X140321Y151177D01*
X140323Y151189D01*
X140325Y151201D01*
X140326Y151213D01*
X140328Y151225D01*
X140347Y151356D01*
X140349Y151368D01*
X140351Y151380D01*
X140353Y151392D01*
X140353Y151396D01*
X140353Y151397D01*
X140380Y152634D01*
X140380Y152635D01*
X140233Y153863D01*
X140231Y153864D01*
X140232Y153865D01*
X139769Y155316D01*
X139767Y155316D01*
X139768Y155318D01*
X139033Y156653D01*
X139031Y156653D01*
X139031Y156655D01*
X138066Y157834D01*
X138065Y157834D01*
X138065Y157836D01*
X136903Y158822D01*
X136901Y158822D01*
X136901Y158823D01*
X135578Y159580D01*
X135577Y159580D01*
X135577Y159581D01*
X134419Y160019D01*
X134418Y160018D01*
X134417Y160020D01*
X133311Y160205D01*
X133198Y160224D01*
X133197Y160224D01*
X133196Y160225D01*
X133131Y160227D01*
X133130Y160227D01*
X132759Y160239D01*
X132758Y160239D01*
X132387Y160251D01*
X132386Y160251D01*
X132015Y160262D01*
X132015Y160263D01*
X132014Y160263D01*
X131960Y160264D01*
X131959Y160264D01*
X131863Y160263D01*
X131861Y160263D01*
X131861Y160262D01*
X131204Y160251D01*
X131203Y160251D01*
X130734Y160242D01*
X130733Y160241D01*
X130732Y160242D01*
X129528Y160024D01*
X129527Y160023D01*
X129526Y160024D01*
X128236Y159544D01*
X128235Y159543D01*
X128234Y159544D01*
X127034Y158866D01*
X127033Y158864D01*
X127032Y158865D01*
X125964Y157995D01*
X125963Y157993D01*
X125962Y157993D01*
X125061Y156952D01*
X125061Y156950D01*
X125059Y156950D01*
X124348Y155771D01*
X124348Y155769D01*
X124347Y155769D01*
X123836Y154489D01*
X123837Y154488D01*
X123835Y154487D01*
X123612Y153312D01*
X123612Y153311D01*
X123611Y153310D01*
X123592Y152109D01*
X123593Y152108D01*
X123592Y152108D01*
X123623Y150875D01*
X123624Y150874D01*
X123623Y150872D01*
X123883Y149672D01*
X123884Y149671D01*
X123884Y149670D01*
X124385Y148446D01*
X124387Y148446D01*
X124386Y148445D01*
X125083Y147322D01*
X125085Y147322D01*
X125084Y147321D01*
X125959Y146330D01*
X125960Y146330D01*
X125960Y146329D01*
X127038Y145421D01*
X127040Y145421D01*
X127040Y145420D01*
X128256Y144708D01*
X128257Y144709D01*
X128258Y144707D01*
X129577Y144214D01*
X129579Y144214D01*
X129579Y144213D01*
X130926Y143988D01*
X130927Y143988D01*
X132291Y143932D01*
X132291Y143933D01*
G37*
G36*
X163875Y144223D02*
X163875Y144223D01*
X163874Y144224D01*
X163875Y144225D01*
X163875Y146838D01*
X163872Y146842D01*
X163872Y146846D01*
X163004Y147854D01*
X162137Y148863D01*
X161269Y149872D01*
X160401Y150881D01*
X159534Y151889D01*
X158662Y152904D01*
X157791Y153921D01*
X156921Y154937D01*
X156053Y155956D01*
X155211Y156966D01*
X156579Y157003D01*
X157972Y157015D01*
X159366Y157018D01*
X163546Y157018D01*
X163558Y157028D01*
X163557Y157029D01*
X163558Y157030D01*
X163558Y160098D01*
X163547Y160110D01*
X163546Y160110D01*
X150636Y160110D01*
X150624Y160100D01*
X150625Y160099D01*
X150624Y160098D01*
X150624Y157400D01*
X150628Y157396D01*
X150627Y157392D01*
X151491Y156387D01*
X152356Y155380D01*
X153221Y154376D01*
X154085Y153371D01*
X154950Y152366D01*
X155815Y151359D01*
X156679Y150354D01*
X157544Y149350D01*
X158409Y148343D01*
X159256Y147358D01*
X158476Y147353D01*
X158471Y147353D01*
X157840Y147348D01*
X156434Y147341D01*
X156429Y147341D01*
X156400Y147340D01*
X154959Y147331D01*
X154623Y147329D01*
X154619Y147329D01*
X153518Y147321D01*
X152818Y147317D01*
X152813Y147317D01*
X152076Y147312D01*
X150801Y147305D01*
X150795Y147305D01*
X150636Y147304D01*
X150624Y147293D01*
X150625Y147293D01*
X150624Y147292D01*
X150624Y144225D01*
X150635Y144213D01*
X150636Y144214D01*
X150636Y144213D01*
X163863Y144213D01*
X163875Y144223D01*
G37*
G36*
X89994Y143933D02*
X89994Y143933D01*
X89995Y143932D01*
X91378Y144046D01*
X91379Y144048D01*
X91380Y144047D01*
X92831Y144482D01*
X92832Y144483D01*
X92833Y144483D01*
X94184Y145167D01*
X94184Y145168D01*
X94186Y145168D01*
X95383Y146097D01*
X95383Y146098D01*
X95384Y146098D01*
X96377Y147241D01*
X96377Y147243D01*
X96378Y147243D01*
X97132Y148558D01*
X97132Y148559D01*
X97133Y148560D01*
X97635Y149988D01*
X97634Y149990D01*
X97635Y149991D01*
X97827Y151319D01*
X97827Y151320D01*
X97827Y151321D01*
X97848Y152664D01*
X97847Y152665D01*
X97848Y152665D01*
X97692Y153999D01*
X97691Y154000D01*
X97692Y154001D01*
X97255Y155343D01*
X97254Y155343D01*
X97254Y155345D01*
X96596Y156594D01*
X96594Y156594D01*
X96595Y156596D01*
X95733Y157713D01*
X95731Y157714D01*
X95731Y157715D01*
X94688Y158666D01*
X94687Y158666D01*
X94686Y158667D01*
X93486Y159408D01*
X93485Y159408D01*
X93485Y159409D01*
X92215Y159957D01*
X92213Y159956D01*
X92212Y159958D01*
X90858Y160226D01*
X90857Y160225D01*
X90856Y160226D01*
X90838Y160227D01*
X90422Y160239D01*
X90421Y160239D01*
X90006Y160251D01*
X90005Y160251D01*
X89589Y160262D01*
X89589Y160263D01*
X89588Y160263D01*
X89472Y160266D01*
X89471Y160266D01*
X89316Y160263D01*
X89315Y160263D01*
X89315Y160262D01*
X88762Y160251D01*
X88761Y160251D01*
X88220Y160239D01*
X88219Y160239D01*
X88218Y160239D01*
X86990Y160023D01*
X86989Y160022D01*
X86988Y160022D01*
X85899Y159622D01*
X85898Y159621D01*
X85897Y159622D01*
X84869Y159087D01*
X84868Y159085D01*
X84867Y159086D01*
X83929Y158405D01*
X83929Y158404D01*
X83928Y158404D01*
X83328Y157869D01*
X83326Y157853D01*
X83327Y157853D01*
X83327Y157852D01*
X83867Y157235D01*
X84406Y156617D01*
X84957Y155985D01*
X85505Y155349D01*
X85520Y155347D01*
X85521Y155347D01*
X86212Y155824D01*
X87462Y156577D01*
X88851Y157013D01*
X90305Y157035D01*
X91685Y156584D01*
X92838Y155701D01*
X93707Y154442D01*
X94159Y152980D01*
X94174Y151450D01*
X93767Y149973D01*
X92955Y148676D01*
X91775Y147707D01*
X90331Y147207D01*
X89671Y147203D01*
X89666Y147203D01*
X88832Y147198D01*
X87400Y147641D01*
X86132Y148451D01*
X85485Y148973D01*
X85469Y148972D01*
X84907Y148409D01*
X83216Y146713D01*
X83215Y146697D01*
X83217Y146697D01*
X83216Y146696D01*
X83617Y146318D01*
X84697Y145411D01*
X84698Y145411D01*
X84698Y145410D01*
X85906Y144685D01*
X85908Y144685D01*
X85908Y144684D01*
X87231Y144198D01*
X87232Y144198D01*
X87233Y144197D01*
X88605Y143986D01*
X88605Y143987D01*
X88606Y143986D01*
X89993Y143932D01*
X89994Y143933D01*
G37*
G36*
X106714Y143898D02*
X106714Y143898D01*
X106714Y143897D01*
X107978Y144015D01*
X107979Y144016D01*
X107980Y144015D01*
X109376Y144391D01*
X109376Y144393D01*
X109378Y144392D01*
X110678Y145021D01*
X110678Y145022D01*
X110680Y145022D01*
X111851Y145868D01*
X111851Y145869D01*
X111853Y145869D01*
X112858Y146907D01*
X112858Y146909D01*
X112859Y146909D01*
X113648Y148119D01*
X113648Y148120D01*
X113649Y148121D01*
X114201Y149365D01*
X114201Y149367D01*
X114202Y149367D01*
X114515Y150693D01*
X114514Y150694D01*
X114515Y150695D01*
X114595Y152055D01*
X114594Y152056D01*
X114595Y152057D01*
X114545Y153307D01*
X114544Y153308D01*
X114545Y153309D01*
X114301Y154535D01*
X114299Y154536D01*
X114300Y154537D01*
X113836Y155699D01*
X113835Y155700D01*
X113836Y155701D01*
X113155Y156880D01*
X113153Y156881D01*
X113154Y156882D01*
X112287Y157931D01*
X112285Y157931D01*
X112285Y157933D01*
X111253Y158820D01*
X111252Y158820D01*
X111252Y158821D01*
X110080Y159513D01*
X110079Y159513D01*
X110079Y159514D01*
X108990Y159952D01*
X108988Y159952D01*
X108988Y159953D01*
X107841Y160196D01*
X107840Y160195D01*
X107840Y160196D01*
X106668Y160285D01*
X106668Y160284D01*
X106667Y160285D01*
X106026Y160275D01*
X106024Y160275D01*
X105227Y160263D01*
X105225Y160263D01*
X105181Y160263D01*
X105180Y160262D01*
X105179Y160263D01*
X103716Y160013D01*
X103715Y160012D01*
X103713Y160013D01*
X102324Y159484D01*
X102324Y159483D01*
X102322Y159483D01*
X101184Y158793D01*
X101184Y158791D01*
X101183Y158791D01*
X100182Y157923D01*
X100181Y157914D01*
X100180Y157913D01*
X100181Y157912D01*
X100180Y157907D01*
X100181Y157907D01*
X100180Y157907D01*
X100662Y157213D01*
X101208Y156560D01*
X101742Y155949D01*
X102277Y155334D01*
X102283Y155334D01*
X102283Y155333D01*
X102286Y155333D01*
X102292Y155332D01*
X102293Y155333D01*
X102948Y155820D01*
X104194Y156573D01*
X105577Y157018D01*
X107027Y157040D01*
X108408Y156595D01*
X109510Y155792D01*
X110317Y154690D01*
X110796Y153409D01*
X110945Y152050D01*
X110916Y151837D01*
X110911Y151801D01*
X110876Y151539D01*
X110871Y151503D01*
X110836Y151240D01*
X110831Y151204D01*
X110796Y150942D01*
X110791Y150906D01*
X110763Y150694D01*
X110245Y149430D01*
X109397Y148358D01*
X108215Y147552D01*
X106836Y147171D01*
X106633Y147180D01*
X106632Y147180D01*
X106369Y147192D01*
X106106Y147204D01*
X105843Y147216D01*
X105580Y147228D01*
X105404Y147236D01*
X104045Y147693D01*
X102834Y148467D01*
X102204Y148973D01*
X102189Y148972D01*
X102188Y148972D01*
X101117Y147897D01*
X100560Y147321D01*
X100560Y147320D01*
X100559Y147320D01*
X100045Y146706D01*
X100045Y146690D01*
X100888Y145855D01*
X100889Y145855D01*
X100890Y145854D01*
X101845Y145135D01*
X101847Y145135D01*
X101847Y145133D01*
X102974Y144549D01*
X102975Y144550D01*
X102976Y144548D01*
X104187Y144164D01*
X104188Y144165D01*
X104189Y144164D01*
X105441Y143950D01*
X105442Y143950D01*
X105443Y143949D01*
X106713Y143897D01*
X106714Y143898D01*
G37*
%LPC*%
G36*
X131232Y147204D02*
X131232Y147204D01*
X129898Y147609D01*
X128750Y148404D01*
X127887Y149502D01*
X127361Y150794D01*
X127193Y152181D01*
X127391Y153564D01*
X127939Y154848D01*
X128838Y155892D01*
X130009Y156625D01*
X131328Y157029D01*
X132705Y157038D01*
X133305Y156841D01*
X134162Y156555D01*
X135384Y155632D01*
X136243Y154361D01*
X136678Y152889D01*
X136675Y151358D01*
X136224Y149893D01*
X135360Y148627D01*
X134149Y147690D01*
X133305Y147411D01*
X132696Y147212D01*
X132012Y147109D01*
X131232Y147204D01*
G37*
%LPD*%
G36*
X147156Y144223D02*
X147156Y144223D01*
X147155Y144224D01*
X147156Y144225D01*
X147156Y160103D01*
X147145Y160115D01*
X147144Y160114D01*
X147144Y160115D01*
X147066Y160114D01*
X147065Y160114D01*
X146347Y160102D01*
X146345Y160102D01*
X146283Y160101D01*
X145629Y160090D01*
X145627Y160090D01*
X145424Y160086D01*
X144962Y160078D01*
X144960Y160078D01*
X144564Y160071D01*
X144288Y160066D01*
X144286Y160066D01*
X143705Y160056D01*
X143693Y160046D01*
X143694Y160045D01*
X143693Y160044D01*
X143687Y158463D01*
X143682Y156881D01*
X143676Y155299D01*
X143671Y153717D01*
X143666Y152135D01*
X143660Y150553D01*
X143655Y148972D01*
X143649Y147389D01*
X143644Y145808D01*
X143639Y144225D01*
X143650Y144213D01*
X143651Y144214D01*
X143651Y144213D01*
X147144Y144213D01*
X147156Y144223D01*
G37*
G36*
X120913Y144223D02*
X120913Y144223D01*
X120912Y144224D01*
X120913Y144225D01*
X120913Y147822D01*
X120902Y147834D01*
X120902Y147833D01*
X120901Y147834D01*
X117304Y147834D01*
X117292Y147824D01*
X117292Y147823D01*
X117292Y147822D01*
X117292Y144225D01*
X117302Y144213D01*
X117303Y144214D01*
X117304Y144213D01*
X120901Y144213D01*
X120913Y144223D01*
G37*
D10*
X180601Y232923D02*
X182126Y231398D01*
X182126Y228347D01*
X180601Y226822D01*
X174499Y226822D01*
X172974Y228347D01*
X172974Y231398D01*
X174499Y232923D01*
X177550Y232923D01*
X177550Y229873D01*
X172974Y236177D02*
X182126Y236177D01*
X172974Y242278D01*
X182126Y242278D01*
X182126Y245532D02*
X172974Y245532D01*
X172974Y250108D01*
X174499Y251634D01*
X180601Y251634D01*
X182126Y250108D01*
X182126Y245532D01*
X157488Y227076D02*
X148336Y227076D01*
X148336Y231652D01*
X149861Y233177D01*
X155963Y233177D01*
X157488Y231652D01*
X157488Y227076D01*
X157488Y237956D02*
X157488Y241007D01*
X157488Y237956D02*
X155963Y236431D01*
X149861Y236431D01*
X148336Y237956D01*
X148336Y241007D01*
X149861Y242532D01*
X155963Y242532D01*
X157488Y241007D01*
X131580Y231398D02*
X130055Y232923D01*
X131580Y231398D02*
X131580Y228347D01*
X130055Y226822D01*
X123953Y226822D01*
X122428Y228347D01*
X122428Y231398D01*
X123953Y232923D01*
X131580Y237702D02*
X131580Y240753D01*
X131580Y237702D02*
X130055Y236177D01*
X123953Y236177D01*
X122428Y237702D01*
X122428Y240753D01*
X123953Y242278D01*
X130055Y242278D01*
X131580Y240753D01*
X88654Y216662D02*
X82553Y216662D01*
X79502Y219713D01*
X82553Y222763D01*
X88654Y222763D01*
X88654Y226017D02*
X79502Y226017D01*
X79502Y232118D01*
X88654Y235372D02*
X88654Y241474D01*
X88654Y235372D02*
X79502Y235372D01*
X79502Y241474D01*
X84078Y238423D02*
X84078Y235372D01*
X88654Y244728D02*
X79502Y244728D01*
X79502Y249303D01*
X81027Y250829D01*
X87129Y250829D01*
X88654Y249303D01*
X88654Y244728D01*
D11*
X96393Y116548D02*
X96393Y111633D01*
X96393Y116548D02*
X93936Y119005D01*
X91478Y116548D01*
X91478Y111633D01*
X91478Y115319D02*
X96393Y115319D01*
X88909Y119005D02*
X88909Y111633D01*
X85223Y111633D01*
X83994Y112862D01*
X83994Y117777D01*
X85223Y119005D01*
X88909Y119005D01*
X81425Y119005D02*
X81425Y111633D01*
X77739Y111633D01*
X76510Y112862D01*
X76510Y117777D01*
X77739Y119005D01*
X81425Y119005D01*
X73941Y119005D02*
X73941Y111633D01*
X73941Y119005D02*
X70254Y119005D01*
X69026Y117777D01*
X69026Y115319D01*
X70254Y114090D01*
X73941Y114090D01*
X71483Y114090D02*
X69026Y111633D01*
D10*
X209291Y137422D02*
X215392Y137422D01*
X209291Y137422D02*
X209291Y135897D01*
X215392Y129795D01*
X215392Y128270D01*
X209291Y128270D01*
X206037Y134371D02*
X204512Y134371D01*
X204512Y128270D01*
X206037Y128270D02*
X202986Y128270D01*
X204512Y137422D02*
X204512Y138947D01*
X198275Y128270D02*
X195224Y128270D01*
X193699Y129795D01*
X193699Y132846D01*
X195224Y134371D01*
X198275Y134371D01*
X199800Y132846D01*
X199800Y129795D01*
X198275Y128270D01*
X181090Y129795D02*
X181090Y135897D01*
X179564Y137422D01*
X176514Y137422D01*
X174988Y135897D01*
X174988Y129795D01*
X176514Y128270D01*
X179564Y128270D01*
X181090Y129795D01*
X178039Y131321D02*
X174988Y128270D01*
X171734Y129795D02*
X171734Y134371D01*
X171734Y129795D02*
X170209Y128270D01*
X168684Y129795D01*
X167159Y128270D01*
X165633Y129795D01*
X165633Y134371D01*
X162379Y134371D02*
X160854Y134371D01*
X160854Y128270D01*
X162379Y128270D02*
X159329Y128270D01*
X160854Y137422D02*
X160854Y138947D01*
X156143Y134371D02*
X154617Y134371D01*
X154617Y128270D01*
X153092Y128270D02*
X156143Y128270D01*
X154617Y137422D02*
X154617Y138947D01*
X148380Y134371D02*
X143805Y134371D01*
X148380Y134371D02*
X149906Y132846D01*
X149906Y129795D01*
X148380Y128270D01*
X143805Y128270D01*
X131195Y128270D02*
X131195Y137422D01*
X126619Y137422D01*
X125094Y135897D01*
X125094Y132846D01*
X126619Y131321D01*
X131195Y131321D01*
X128145Y131321D02*
X125094Y128270D01*
X117264Y137422D02*
X115739Y135897D01*
X117264Y137422D02*
X120315Y137422D01*
X121840Y135897D01*
X121840Y129795D01*
X120315Y128270D01*
X117264Y128270D01*
X115739Y129795D01*
X115739Y132846D01*
X118790Y132846D01*
X112485Y128270D02*
X112485Y137422D01*
X107909Y137422D01*
X106384Y135897D01*
X106384Y134371D01*
X107909Y132846D01*
X106384Y131321D01*
X106384Y129795D01*
X107909Y128270D01*
X112485Y128270D01*
X112485Y132846D02*
X107909Y132846D01*
X93775Y137422D02*
X93775Y128270D01*
X87673Y128270D01*
X84419Y137422D02*
X78318Y137422D01*
X84419Y137422D02*
X84419Y128270D01*
X78318Y128270D01*
X81369Y132846D02*
X84419Y132846D01*
X75064Y137422D02*
X75064Y128270D01*
X70488Y128270D01*
X68963Y129795D01*
X68963Y135897D01*
X70488Y137422D01*
X75064Y137422D01*
D11*
X62103Y52156D02*
X63332Y50927D01*
X62103Y52156D02*
X62103Y53384D01*
X63332Y54613D01*
X69475Y54613D01*
X69475Y53384D02*
X69475Y55842D01*
X69475Y58411D02*
X62103Y58411D01*
X69475Y58411D02*
X69475Y62097D01*
X68247Y63326D01*
X65789Y63326D01*
X64560Y62097D01*
X64560Y58411D01*
X67018Y65895D02*
X69475Y68353D01*
X62103Y68353D01*
X62103Y70810D02*
X62103Y65895D01*
D12*
X72390Y73914D02*
X72390Y48514D01*
X92710Y73914D02*
X92708Y74014D01*
X92702Y74113D01*
X92692Y74213D01*
X92679Y74311D01*
X92661Y74410D01*
X92640Y74507D01*
X92615Y74603D01*
X92586Y74699D01*
X92553Y74793D01*
X92517Y74886D01*
X92477Y74977D01*
X92433Y75067D01*
X92386Y75155D01*
X92336Y75241D01*
X92282Y75325D01*
X92225Y75407D01*
X92165Y75486D01*
X92101Y75564D01*
X92035Y75638D01*
X91966Y75710D01*
X91894Y75779D01*
X91820Y75845D01*
X91742Y75909D01*
X91663Y75969D01*
X91581Y76026D01*
X91497Y76080D01*
X91411Y76130D01*
X91323Y76177D01*
X91233Y76221D01*
X91142Y76261D01*
X91049Y76297D01*
X90955Y76330D01*
X90859Y76359D01*
X90763Y76384D01*
X90666Y76405D01*
X90567Y76423D01*
X90469Y76436D01*
X90369Y76446D01*
X90270Y76452D01*
X90170Y76454D01*
X92710Y48514D02*
X92708Y48414D01*
X92702Y48315D01*
X92692Y48215D01*
X92679Y48117D01*
X92661Y48018D01*
X92640Y47921D01*
X92615Y47825D01*
X92586Y47729D01*
X92553Y47635D01*
X92517Y47542D01*
X92477Y47451D01*
X92433Y47361D01*
X92386Y47273D01*
X92336Y47187D01*
X92282Y47103D01*
X92225Y47021D01*
X92165Y46942D01*
X92101Y46864D01*
X92035Y46790D01*
X91966Y46718D01*
X91894Y46649D01*
X91820Y46583D01*
X91742Y46519D01*
X91663Y46459D01*
X91581Y46402D01*
X91497Y46348D01*
X91411Y46298D01*
X91323Y46251D01*
X91233Y46207D01*
X91142Y46167D01*
X91049Y46131D01*
X90955Y46098D01*
X90859Y46069D01*
X90763Y46044D01*
X90666Y46023D01*
X90567Y46005D01*
X90469Y45992D01*
X90369Y45982D01*
X90270Y45976D01*
X90170Y45974D01*
X74930Y45974D02*
X74830Y45976D01*
X74731Y45982D01*
X74631Y45992D01*
X74533Y46005D01*
X74434Y46023D01*
X74337Y46044D01*
X74241Y46069D01*
X74145Y46098D01*
X74051Y46131D01*
X73958Y46167D01*
X73867Y46207D01*
X73777Y46251D01*
X73689Y46298D01*
X73603Y46348D01*
X73519Y46402D01*
X73437Y46459D01*
X73358Y46519D01*
X73280Y46583D01*
X73206Y46649D01*
X73134Y46718D01*
X73065Y46790D01*
X72999Y46864D01*
X72935Y46942D01*
X72875Y47021D01*
X72818Y47103D01*
X72764Y47187D01*
X72714Y47273D01*
X72667Y47361D01*
X72623Y47451D01*
X72583Y47542D01*
X72547Y47635D01*
X72514Y47729D01*
X72485Y47825D01*
X72460Y47921D01*
X72439Y48018D01*
X72421Y48117D01*
X72408Y48215D01*
X72398Y48315D01*
X72392Y48414D01*
X72390Y48514D01*
X72390Y73914D02*
X72392Y74014D01*
X72398Y74113D01*
X72408Y74213D01*
X72421Y74311D01*
X72439Y74410D01*
X72460Y74507D01*
X72485Y74603D01*
X72514Y74699D01*
X72547Y74793D01*
X72583Y74886D01*
X72623Y74977D01*
X72667Y75067D01*
X72714Y75155D01*
X72764Y75241D01*
X72818Y75325D01*
X72875Y75407D01*
X72935Y75486D01*
X72999Y75564D01*
X73065Y75638D01*
X73134Y75710D01*
X73206Y75779D01*
X73280Y75845D01*
X73358Y75909D01*
X73437Y75969D01*
X73519Y76026D01*
X73603Y76080D01*
X73689Y76130D01*
X73777Y76177D01*
X73867Y76221D01*
X73958Y76261D01*
X74051Y76297D01*
X74145Y76330D01*
X74241Y76359D01*
X74337Y76384D01*
X74434Y76405D01*
X74533Y76423D01*
X74631Y76436D01*
X74731Y76446D01*
X74830Y76452D01*
X74930Y76454D01*
X90170Y76454D01*
X90170Y45974D02*
X74930Y45974D01*
X92710Y48514D02*
X92710Y73914D01*
X92456Y107950D02*
X75184Y107950D01*
X94996Y90170D02*
X94994Y90070D01*
X94988Y89971D01*
X94978Y89871D01*
X94965Y89773D01*
X94947Y89674D01*
X94926Y89577D01*
X94901Y89481D01*
X94872Y89385D01*
X94839Y89291D01*
X94803Y89198D01*
X94763Y89107D01*
X94719Y89017D01*
X94672Y88929D01*
X94622Y88843D01*
X94568Y88759D01*
X94511Y88677D01*
X94451Y88598D01*
X94387Y88520D01*
X94321Y88446D01*
X94252Y88374D01*
X94180Y88305D01*
X94106Y88239D01*
X94028Y88175D01*
X93949Y88115D01*
X93867Y88058D01*
X93783Y88004D01*
X93697Y87954D01*
X93609Y87907D01*
X93519Y87863D01*
X93428Y87823D01*
X93335Y87787D01*
X93241Y87754D01*
X93145Y87725D01*
X93049Y87700D01*
X92952Y87679D01*
X92853Y87661D01*
X92755Y87648D01*
X92655Y87638D01*
X92556Y87632D01*
X92456Y87630D01*
X75184Y87630D02*
X75084Y87632D01*
X74985Y87638D01*
X74885Y87648D01*
X74787Y87661D01*
X74688Y87679D01*
X74591Y87700D01*
X74495Y87725D01*
X74399Y87754D01*
X74305Y87787D01*
X74212Y87823D01*
X74121Y87863D01*
X74031Y87907D01*
X73943Y87954D01*
X73857Y88004D01*
X73773Y88058D01*
X73691Y88115D01*
X73612Y88175D01*
X73534Y88239D01*
X73460Y88305D01*
X73388Y88374D01*
X73319Y88446D01*
X73253Y88520D01*
X73189Y88598D01*
X73129Y88677D01*
X73072Y88759D01*
X73018Y88843D01*
X72968Y88929D01*
X72921Y89017D01*
X72877Y89107D01*
X72837Y89198D01*
X72801Y89291D01*
X72768Y89385D01*
X72739Y89481D01*
X72714Y89577D01*
X72693Y89674D01*
X72675Y89773D01*
X72662Y89871D01*
X72652Y89971D01*
X72646Y90070D01*
X72644Y90170D01*
X72644Y105410D02*
X72646Y105510D01*
X72652Y105609D01*
X72662Y105709D01*
X72675Y105807D01*
X72693Y105906D01*
X72714Y106003D01*
X72739Y106099D01*
X72768Y106195D01*
X72801Y106289D01*
X72837Y106382D01*
X72877Y106473D01*
X72921Y106563D01*
X72968Y106651D01*
X73018Y106737D01*
X73072Y106821D01*
X73129Y106903D01*
X73189Y106982D01*
X73253Y107060D01*
X73319Y107134D01*
X73388Y107206D01*
X73460Y107275D01*
X73534Y107341D01*
X73612Y107405D01*
X73691Y107465D01*
X73773Y107522D01*
X73857Y107576D01*
X73943Y107626D01*
X74031Y107673D01*
X74121Y107717D01*
X74212Y107757D01*
X74305Y107793D01*
X74399Y107826D01*
X74495Y107855D01*
X74591Y107880D01*
X74688Y107901D01*
X74787Y107919D01*
X74885Y107932D01*
X74985Y107942D01*
X75084Y107948D01*
X75184Y107950D01*
X92456Y107950D02*
X92556Y107948D01*
X92655Y107942D01*
X92755Y107932D01*
X92853Y107919D01*
X92952Y107901D01*
X93049Y107880D01*
X93145Y107855D01*
X93241Y107826D01*
X93335Y107793D01*
X93428Y107757D01*
X93519Y107717D01*
X93609Y107673D01*
X93697Y107626D01*
X93783Y107576D01*
X93867Y107522D01*
X93949Y107465D01*
X94028Y107405D01*
X94106Y107341D01*
X94180Y107275D01*
X94252Y107206D01*
X94321Y107134D01*
X94387Y107060D01*
X94451Y106982D01*
X94511Y106903D01*
X94568Y106821D01*
X94622Y106737D01*
X94672Y106651D01*
X94719Y106563D01*
X94763Y106473D01*
X94803Y106382D01*
X94839Y106289D01*
X94872Y106195D01*
X94901Y106099D01*
X94926Y106003D01*
X94947Y105906D01*
X94965Y105807D01*
X94978Y105709D01*
X94988Y105609D01*
X94994Y105510D01*
X94996Y105410D01*
X94996Y90170D01*
X72644Y90170D02*
X72644Y105410D01*
X75184Y87630D02*
X92456Y87630D01*
X246380Y89916D02*
X248920Y84074D01*
X250190Y84836D01*
X253238Y82804D01*
X255524Y85090D01*
X253492Y88392D01*
X254762Y91694D01*
X258572Y92456D01*
X258572Y95758D01*
X254762Y96266D01*
X253238Y99568D01*
X255524Y102870D01*
X253238Y105156D01*
X249936Y102870D01*
X246888Y104140D01*
X246126Y108204D01*
X242824Y108204D01*
X242062Y104140D01*
X239014Y102870D01*
X235458Y105156D01*
X233172Y102870D01*
X235458Y99568D01*
X234188Y96520D01*
X230378Y95758D01*
X230378Y92456D01*
X233934Y91694D01*
X235458Y88392D01*
X233172Y85090D01*
X235458Y82804D01*
X238506Y84836D01*
X240030Y84074D01*
X242316Y89916D01*
X242197Y89978D01*
X242079Y90043D01*
X241964Y90112D01*
X241850Y90184D01*
X241739Y90260D01*
X241630Y90339D01*
X241523Y90421D01*
X241419Y90506D01*
X241318Y90594D01*
X241219Y90685D01*
X241123Y90779D01*
X241030Y90876D01*
X240939Y90975D01*
X240852Y91077D01*
X240767Y91182D01*
X240686Y91289D01*
X240608Y91399D01*
X240534Y91511D01*
X240462Y91625D01*
X240394Y91741D01*
X240330Y91859D01*
X240269Y91978D01*
X240211Y92100D01*
X240157Y92223D01*
X240107Y92348D01*
X240061Y92474D01*
X240018Y92602D01*
X239979Y92730D01*
X239944Y92860D01*
X239913Y92991D01*
X239886Y93123D01*
X239862Y93255D01*
X239843Y93388D01*
X239827Y93522D01*
X239816Y93655D01*
X239808Y93790D01*
X239804Y93924D01*
X239805Y94059D01*
X239809Y94193D01*
X239817Y94327D01*
X239830Y94461D01*
X239846Y94595D01*
X239866Y94727D01*
X239890Y94860D01*
X239918Y94991D01*
X239950Y95122D01*
X239986Y95252D01*
X240025Y95380D01*
X240068Y95507D01*
X240115Y95633D01*
X240166Y95758D01*
X240221Y95881D01*
X240279Y96002D01*
X240340Y96121D01*
X240405Y96239D01*
X240474Y96355D01*
X240546Y96468D01*
X240621Y96580D01*
X240700Y96689D01*
X240781Y96796D01*
X240866Y96900D01*
X240954Y97002D01*
X241045Y97101D01*
X241139Y97197D01*
X241236Y97291D01*
X241335Y97381D01*
X241437Y97469D01*
X241541Y97554D01*
X241648Y97635D01*
X241758Y97713D01*
X241869Y97788D01*
X241983Y97860D01*
X242099Y97928D01*
X242217Y97993D01*
X242336Y98054D01*
X242458Y98112D01*
X242581Y98166D01*
X242705Y98217D01*
X242831Y98263D01*
X242959Y98306D01*
X243087Y98346D01*
X243217Y98381D01*
X243348Y98413D01*
X243479Y98440D01*
X243612Y98464D01*
X243745Y98484D01*
X243878Y98500D01*
X244012Y98512D01*
X244146Y98520D01*
X244281Y98524D01*
X244415Y98524D01*
X244550Y98520D01*
X244684Y98512D01*
X244818Y98500D01*
X244951Y98484D01*
X245084Y98464D01*
X245217Y98440D01*
X245348Y98413D01*
X245479Y98381D01*
X245609Y98346D01*
X245737Y98306D01*
X245865Y98263D01*
X245991Y98217D01*
X246115Y98166D01*
X246238Y98112D01*
X246360Y98054D01*
X246479Y97993D01*
X246597Y97928D01*
X246713Y97860D01*
X246827Y97788D01*
X246938Y97713D01*
X247048Y97635D01*
X247155Y97554D01*
X247259Y97469D01*
X247361Y97381D01*
X247460Y97291D01*
X247557Y97197D01*
X247651Y97101D01*
X247742Y97002D01*
X247830Y96900D01*
X247915Y96796D01*
X247996Y96689D01*
X248075Y96580D01*
X248150Y96468D01*
X248222Y96355D01*
X248291Y96239D01*
X248356Y96121D01*
X248417Y96002D01*
X248475Y95881D01*
X248530Y95758D01*
X248581Y95633D01*
X248628Y95507D01*
X248671Y95380D01*
X248710Y95252D01*
X248746Y95122D01*
X248778Y94991D01*
X248806Y94860D01*
X248830Y94727D01*
X248850Y94595D01*
X248866Y94461D01*
X248879Y94327D01*
X248887Y94193D01*
X248891Y94059D01*
X248892Y93924D01*
X248888Y93790D01*
X248880Y93655D01*
X248869Y93522D01*
X248853Y93388D01*
X248834Y93255D01*
X248810Y93123D01*
X248783Y92991D01*
X248752Y92860D01*
X248717Y92730D01*
X248678Y92602D01*
X248635Y92474D01*
X248589Y92348D01*
X248539Y92223D01*
X248485Y92100D01*
X248427Y91978D01*
X248366Y91859D01*
X248302Y91741D01*
X248234Y91625D01*
X248162Y91511D01*
X248088Y91399D01*
X248010Y91289D01*
X247929Y91182D01*
X247844Y91077D01*
X247757Y90975D01*
X247666Y90876D01*
X247573Y90779D01*
X247477Y90685D01*
X247378Y90594D01*
X247277Y90506D01*
X247173Y90421D01*
X247066Y90339D01*
X246957Y90260D01*
X246846Y90184D01*
X246732Y90112D01*
X246617Y90043D01*
X246499Y89978D01*
X246380Y89916D01*
D13*
X54282Y125402D03*
D14*
X48982Y125402D03*
X44782Y125402D03*
D15*
X36882Y125402D03*
X29282Y125402D03*
D14*
X25182Y125402D03*
X20982Y125402D03*
D16*
X13182Y125402D03*
D17*
X54282Y125202D03*
D18*
X48882Y125202D03*
X44682Y125202D03*
X36882Y125202D03*
D14*
X29182Y125202D03*
D18*
X25282Y125202D03*
X20882Y125202D03*
D15*
X13082Y125202D03*
D19*
X54382Y125002D03*
D18*
X48882Y125002D03*
X44682Y125002D03*
D20*
X36982Y125002D03*
D18*
X29282Y125002D03*
X25282Y125002D03*
X20882Y125002D03*
D21*
X13082Y125002D03*
X54282Y124802D03*
D18*
X48882Y124802D03*
X44682Y124802D03*
D20*
X36982Y124802D03*
D14*
X29382Y124802D03*
D18*
X25282Y124802D03*
X20882Y124802D03*
D22*
X13182Y124802D03*
D23*
X54282Y124602D03*
D18*
X48882Y124602D03*
X44482Y124602D03*
D24*
X36882Y124602D03*
D14*
X29382Y124602D03*
D18*
X25282Y124602D03*
X20882Y124602D03*
D25*
X13082Y124602D03*
D26*
X54382Y124402D03*
D18*
X48882Y124402D03*
X44482Y124402D03*
D24*
X36882Y124402D03*
D18*
X29482Y124402D03*
X25282Y124402D03*
X20882Y124402D03*
D27*
X13182Y124402D03*
D28*
X54382Y124202D03*
D20*
X48982Y124202D03*
D14*
X44382Y124202D03*
D19*
X36982Y124202D03*
D14*
X29582Y124202D03*
D18*
X25282Y124202D03*
X20882Y124202D03*
D29*
X13182Y124202D03*
D30*
X52482Y124002D03*
D18*
X44282Y124002D03*
D19*
X36982Y124002D03*
D14*
X29582Y124002D03*
D18*
X25282Y124002D03*
X20882Y124002D03*
D31*
X13082Y124002D03*
D32*
X52582Y123802D03*
D18*
X44282Y123802D03*
D33*
X36882Y123802D03*
D14*
X29582Y123802D03*
D18*
X25282Y123802D03*
X20882Y123802D03*
D34*
X13082Y123802D03*
D35*
X52682Y123602D03*
D14*
X44182Y123602D03*
D36*
X36982Y123602D03*
D14*
X29782Y123602D03*
D18*
X25282Y123602D03*
X20882Y123602D03*
D37*
X13182Y123602D03*
D35*
X52682Y123402D03*
D14*
X44182Y123402D03*
D36*
X36982Y123402D03*
D14*
X29782Y123402D03*
D18*
X25282Y123402D03*
X20882Y123402D03*
D38*
X13182Y123402D03*
D39*
X52782Y123202D03*
D18*
X44082Y123202D03*
D21*
X36882Y123202D03*
D15*
X29882Y123202D03*
D18*
X25282Y123202D03*
X20882Y123202D03*
D40*
X13082Y123202D03*
D41*
X52882Y123002D03*
D14*
X43982Y123002D03*
D21*
X36882Y123002D03*
D14*
X29982Y123002D03*
D18*
X25282Y123002D03*
X20882Y123002D03*
D42*
X13082Y123002D03*
D41*
X52882Y122802D03*
D14*
X43982Y122802D03*
D43*
X36982Y122802D03*
D14*
X29982Y122802D03*
D18*
X25282Y122802D03*
X20882Y122802D03*
D42*
X13282Y122802D03*
D41*
X52882Y122602D03*
D18*
X43882Y122602D03*
D44*
X36882Y122602D03*
D14*
X29982Y122602D03*
D18*
X25282Y122602D03*
X20882Y122602D03*
D45*
X13382Y122602D03*
D21*
X56482Y122402D03*
D22*
X49782Y122402D03*
D14*
X43782Y122402D03*
D44*
X36882Y122402D03*
D15*
X30082Y122402D03*
D18*
X25282Y122402D03*
X20882Y122402D03*
D21*
X15882Y122402D03*
D15*
X10682Y122402D03*
D36*
X56782Y122202D03*
D43*
X49582Y122202D03*
D14*
X43782Y122202D03*
D44*
X36882Y122202D03*
D14*
X30182Y122202D03*
D18*
X25282Y122202D03*
X20882Y122202D03*
D33*
X16082Y122202D03*
D46*
X10582Y122202D03*
D19*
X56982Y122002D03*
D36*
X49382Y122002D03*
D18*
X43682Y122002D03*
D22*
X36982Y122002D03*
D15*
X30282Y122002D03*
D18*
X25282Y122002D03*
X20882Y122002D03*
D19*
X16382Y122002D03*
D47*
X10582Y122002D03*
D24*
X57082Y121802D03*
D33*
X49282Y121802D03*
D14*
X43582Y121802D03*
D22*
X36982Y121802D03*
D15*
X30282Y121802D03*
D18*
X25282Y121802D03*
X20882Y121802D03*
D24*
X16482Y121802D03*
D13*
X10682Y121802D03*
D24*
X57082Y121602D03*
D19*
X49182Y121602D03*
D14*
X43582Y121602D03*
D48*
X36982Y121602D03*
D14*
X30382Y121602D03*
D18*
X25282Y121602D03*
X20882Y121602D03*
D20*
X16582Y121602D03*
D49*
X10782Y121602D03*
D20*
X57182Y121402D03*
D24*
X49082Y121402D03*
D15*
X43482Y121402D03*
D48*
X36982Y121402D03*
D15*
X30482Y121402D03*
D18*
X25282Y121402D03*
X20882Y121402D03*
X16682Y121402D03*
D20*
X57382Y121202D03*
D24*
X49082Y121202D03*
D14*
X43382Y121202D03*
D50*
X36882Y121202D03*
D15*
X30482Y121202D03*
D18*
X25282Y121202D03*
X20882Y121202D03*
D20*
X16782Y121202D03*
X57382Y121002D03*
D24*
X49082Y121002D03*
D14*
X43382Y121002D03*
D50*
X36882Y121002D03*
D15*
X30682Y121002D03*
D18*
X25282Y121002D03*
X20882Y121002D03*
D20*
X16782Y121002D03*
X57382Y120802D03*
X48982Y120802D03*
D15*
X43282Y120802D03*
D17*
X38482Y120802D03*
D51*
X35382Y120802D03*
D15*
X30682Y120802D03*
D18*
X25282Y120802D03*
X20882Y120802D03*
X16882Y120802D03*
X57482Y120602D03*
D20*
X48982Y120602D03*
D14*
X43182Y120602D03*
D17*
X38682Y120602D03*
D51*
X35382Y120602D03*
D15*
X30682Y120602D03*
D18*
X25282Y120602D03*
X20882Y120602D03*
X16882Y120602D03*
X57482Y120402D03*
D20*
X48982Y120402D03*
D14*
X43182Y120402D03*
D17*
X38682Y120402D03*
D51*
X35182Y120402D03*
X30782Y120402D03*
D18*
X25282Y120402D03*
X20882Y120402D03*
X16882Y120402D03*
X57482Y120202D03*
X48882Y120202D03*
D15*
X43082Y120202D03*
D51*
X38782Y120202D03*
X35182Y120202D03*
D15*
X30882Y120202D03*
D18*
X25282Y120202D03*
X20882Y120202D03*
X16882Y120202D03*
X57482Y120002D03*
X48882Y120002D03*
D14*
X42982Y120002D03*
D51*
X38782Y120002D03*
X35182Y120002D03*
D15*
X30882Y120002D03*
D18*
X25282Y120002D03*
X20882Y120002D03*
X16882Y120002D03*
X57482Y119802D03*
X48882Y119802D03*
D15*
X42882Y119802D03*
D17*
X38882Y119802D03*
X35082Y119802D03*
D51*
X30982Y119802D03*
D18*
X25282Y119802D03*
X20882Y119802D03*
X16882Y119802D03*
X57482Y119602D03*
X48882Y119602D03*
D15*
X42882Y119602D03*
D17*
X38882Y119602D03*
D51*
X34982Y119602D03*
D15*
X31082Y119602D03*
D18*
X25282Y119602D03*
X20882Y119602D03*
X16882Y119602D03*
X57482Y119402D03*
X48882Y119402D03*
D15*
X42882Y119402D03*
D17*
X39082Y119402D03*
D51*
X34982Y119402D03*
X31182Y119402D03*
D18*
X25282Y119402D03*
X20882Y119402D03*
X16882Y119402D03*
X57482Y119202D03*
D20*
X48982Y119202D03*
D14*
X42782Y119202D03*
D17*
X39082Y119202D03*
D51*
X34782Y119202D03*
X31182Y119202D03*
D18*
X25282Y119202D03*
X20882Y119202D03*
X16882Y119202D03*
X57482Y119002D03*
D20*
X48982Y119002D03*
D15*
X42682Y119002D03*
D17*
X39082Y119002D03*
D51*
X34782Y119002D03*
X31182Y119002D03*
D18*
X25282Y119002D03*
X20882Y119002D03*
X16882Y119002D03*
D20*
X57382Y118802D03*
X48982Y118802D03*
D15*
X42682Y118802D03*
D17*
X39082Y118802D03*
D51*
X34782Y118802D03*
D15*
X31282Y118802D03*
D18*
X25282Y118802D03*
X20882Y118802D03*
D20*
X16782Y118802D03*
X57382Y118602D03*
D24*
X49082Y118602D03*
D15*
X42482Y118602D03*
D17*
X39282Y118602D03*
D51*
X34782Y118602D03*
X31382Y118602D03*
D18*
X25282Y118602D03*
X20882Y118602D03*
D20*
X16782Y118602D03*
X57382Y118402D03*
D24*
X49082Y118402D03*
D26*
X40982Y118402D03*
X32982Y118402D03*
D18*
X25282Y118402D03*
X20882Y118402D03*
D20*
X16582Y118402D03*
D52*
X10682Y118402D03*
D20*
X57182Y118202D03*
D24*
X49082Y118202D03*
D26*
X40982Y118202D03*
D50*
X33082Y118202D03*
D18*
X25282Y118202D03*
X20882Y118202D03*
D20*
X16582Y118202D03*
D53*
X10582Y118202D03*
D24*
X57082Y118002D03*
D19*
X49182Y118002D03*
D48*
X40982Y118002D03*
X32982Y118002D03*
D18*
X25282Y118002D03*
X20882Y118002D03*
D24*
X16482Y118002D03*
D54*
X10482Y118002D03*
D24*
X57082Y117802D03*
D33*
X49282Y117802D03*
D48*
X40982Y117802D03*
X32982Y117802D03*
D18*
X25282Y117802D03*
X20882Y117802D03*
D19*
X16382Y117802D03*
D55*
X10382Y117802D03*
D19*
X56982Y117602D03*
D36*
X49382Y117602D03*
D48*
X40982Y117602D03*
D23*
X33082Y117602D03*
D18*
X25282Y117602D03*
X20882Y117602D03*
D33*
X16082Y117602D03*
D17*
X10482Y117602D03*
D33*
X56682Y117402D03*
D21*
X49482Y117402D03*
D22*
X40982Y117402D03*
D23*
X33082Y117402D03*
D18*
X25282Y117402D03*
X20882Y117402D03*
D42*
X13482Y117402D03*
D36*
X56582Y117202D03*
D44*
X49682Y117202D03*
D22*
X40982Y117202D03*
X32982Y117202D03*
D18*
X25282Y117202D03*
X20882Y117202D03*
D42*
X13282Y117202D03*
D44*
X56082Y117002D03*
D50*
X50082Y117002D03*
D44*
X40882Y117002D03*
X33082Y117002D03*
D18*
X25282Y117002D03*
X20882Y117002D03*
D56*
X13182Y117002D03*
D41*
X52882Y116802D03*
D43*
X40982Y116802D03*
D44*
X33082Y116802D03*
D18*
X25282Y116802D03*
X20882Y116802D03*
D45*
X13182Y116802D03*
D41*
X52882Y116602D03*
D43*
X40982Y116602D03*
D21*
X33082Y116602D03*
D18*
X25282Y116602D03*
X20882Y116602D03*
D40*
X13082Y116602D03*
D39*
X52782Y116402D03*
D21*
X40882Y116402D03*
X33082Y116402D03*
D18*
X25282Y116402D03*
X20882Y116402D03*
D57*
X13082Y116402D03*
D35*
X52682Y116202D03*
D21*
X40882Y116202D03*
X33082Y116202D03*
D18*
X25282Y116202D03*
X20882Y116202D03*
D34*
X13082Y116202D03*
D32*
X52582Y116002D03*
D36*
X40982Y116002D03*
D33*
X33082Y116002D03*
D18*
X25282Y116002D03*
X20882Y116002D03*
D31*
X13082Y116002D03*
D30*
X52482Y115802D03*
D33*
X40882Y115802D03*
X33082Y115802D03*
D18*
X25282Y115802D03*
X20882Y115802D03*
D58*
X13082Y115802D03*
D59*
X52382Y115602D03*
D19*
X40982Y115602D03*
D33*
X33082Y115602D03*
D18*
X25282Y115602D03*
X20882Y115602D03*
D60*
X13082Y115602D03*
D25*
X54282Y115402D03*
D20*
X48982Y115402D03*
D24*
X40882Y115402D03*
D19*
X33182Y115402D03*
D18*
X25282Y115402D03*
X20882Y115402D03*
D25*
X13082Y115402D03*
D50*
X54282Y115202D03*
D18*
X48882Y115202D03*
D24*
X40882Y115202D03*
X33082Y115202D03*
D18*
X25282Y115202D03*
X20882Y115202D03*
D50*
X13082Y115202D03*
D23*
X54282Y115002D03*
D18*
X48882Y115002D03*
D24*
X40882Y115002D03*
D20*
X33182Y115002D03*
D18*
X25282Y115002D03*
X20882Y115002D03*
D43*
X13182Y115002D03*
D21*
X54282Y114802D03*
D18*
X48882Y114802D03*
X40882Y114802D03*
D20*
X33182Y114802D03*
D18*
X25282Y114802D03*
X20882Y114802D03*
X13082Y114802D03*
D24*
X54282Y114602D03*
D18*
X48882Y114602D03*
X40882Y114602D03*
X33082Y114602D03*
D14*
X25182Y114602D03*
D18*
X20882Y114602D03*
D55*
X13182Y114602D03*
D17*
X54282Y114402D03*
D18*
X48882Y114402D03*
D53*
X54182Y114202D03*
D18*
X48882Y114202D03*
X48882Y114002D03*
X48882Y113802D03*
X48882Y113602D03*
X48882Y113402D03*
X48882Y113202D03*
X48882Y113002D03*
X48882Y112802D03*
X48882Y112602D03*
X48882Y112402D03*
X48882Y112202D03*
X48882Y112002D03*
D19*
X33182Y112002D03*
D18*
X48882Y111802D03*
D61*
X33182Y111802D03*
D18*
X48882Y111602D03*
D56*
X33182Y111602D03*
D18*
X48882Y111402D03*
D62*
X33182Y111402D03*
D18*
X48882Y111202D03*
D63*
X33182Y111202D03*
D18*
X48882Y111002D03*
D64*
X33182Y111002D03*
D18*
X48882Y110802D03*
D65*
X33082Y110802D03*
D14*
X48982Y110602D03*
D66*
X33182Y110602D03*
D67*
X33182Y110402D03*
D68*
X33182Y110202D03*
D69*
X33182Y110002D03*
D70*
X33182Y109802D03*
D71*
X33082Y109602D03*
D72*
X33182Y109402D03*
D73*
X33182Y109202D03*
D74*
X33082Y109002D03*
D75*
X33082Y108802D03*
D76*
X33182Y108602D03*
D77*
X33082Y108402D03*
D78*
X33082Y108202D03*
D79*
X33082Y108002D03*
D80*
X33082Y107802D03*
D81*
X33082Y107602D03*
D82*
X33182Y107402D03*
D83*
X33082Y107202D03*
D84*
X33082Y107002D03*
D85*
X33182Y106802D03*
D86*
X33082Y106602D03*
D87*
X33082Y106402D03*
D88*
X33082Y106202D03*
D89*
X33182Y106002D03*
D90*
X33182Y105802D03*
D91*
X33182Y105602D03*
D92*
X33182Y105402D03*
D93*
X33182Y105202D03*
D94*
X33182Y105002D03*
D95*
X33082Y104802D03*
D96*
X33182Y104602D03*
D97*
X33182Y104402D03*
D98*
X33182Y104202D03*
D99*
X33182Y104002D03*
D100*
X33182Y103802D03*
D101*
X33182Y103602D03*
D102*
X33182Y103402D03*
D103*
X33082Y103202D03*
D104*
X33082Y103002D03*
D105*
X33182Y102802D03*
D106*
X33182Y102602D03*
D107*
X33182Y102402D03*
D108*
X33082Y102202D03*
D109*
X33182Y102002D03*
D110*
X33182Y101802D03*
D111*
X33182Y101602D03*
D112*
X33082Y101402D03*
D113*
X33182Y101202D03*
D114*
X33082Y101002D03*
D115*
X33082Y100802D03*
D116*
X33182Y100602D03*
D117*
X33082Y100402D03*
D118*
X33082Y100202D03*
D119*
X33182Y100002D03*
D120*
X33082Y99802D03*
D121*
X33182Y99602D03*
D122*
X33082Y99402D03*
D123*
X33182Y99202D03*
D124*
X33182Y99002D03*
X33182Y98802D03*
D125*
X33082Y98602D03*
D126*
X33082Y98402D03*
D127*
X33182Y98202D03*
X33182Y98002D03*
D128*
X33182Y97802D03*
D129*
X33082Y97602D03*
X33082Y97402D03*
D130*
X33182Y97202D03*
D131*
X33082Y97002D03*
D132*
X33182Y96802D03*
D133*
X33082Y96602D03*
X33082Y96402D03*
D134*
X33182Y96202D03*
D135*
X33082Y96002D03*
D136*
X33182Y95802D03*
X33182Y95602D03*
D137*
X33082Y95402D03*
D138*
X33182Y95202D03*
D139*
X33082Y95002D03*
X33082Y94802D03*
D140*
X33182Y94602D03*
X33182Y94402D03*
D50*
X53882Y94202D03*
D25*
X12482Y94202D03*
D50*
X54082Y94002D03*
D26*
X12382Y94002D03*
D48*
X54182Y93802D03*
D26*
X12382Y93802D03*
D48*
X54182Y93602D03*
D26*
X12382Y93602D03*
D48*
X54182Y93402D03*
D25*
X12282Y93402D03*
D50*
X54282Y93202D03*
D25*
X12282Y93202D03*
D50*
X54282Y93002D03*
D25*
X12282Y93002D03*
D50*
X54282Y92802D03*
D28*
X12182Y92802D03*
D50*
X54282Y92602D03*
D28*
X12182Y92602D03*
D26*
X54382Y92402D03*
D28*
X12182Y92402D03*
D26*
X54382Y92202D03*
D28*
X12182Y92202D03*
D26*
X54382Y92002D03*
D28*
X12182Y92002D03*
D26*
X54382Y91802D03*
D28*
X12182Y91802D03*
D26*
X54382Y91602D03*
D141*
X12082Y91602D03*
D25*
X54482Y91402D03*
D141*
X12082Y91402D03*
D25*
X54482Y91202D03*
D141*
X12082Y91202D03*
D25*
X54482Y91002D03*
D141*
X12082Y91002D03*
D25*
X54482Y90802D03*
D141*
X12082Y90802D03*
D25*
X54482Y90602D03*
D27*
X11982Y90602D03*
D25*
X54482Y90402D03*
D27*
X11982Y90402D03*
D25*
X54482Y90202D03*
D27*
X11982Y90202D03*
D25*
X54482Y90002D03*
D27*
X11982Y90002D03*
D25*
X54482Y89802D03*
D27*
X11982Y89802D03*
D25*
X54482Y89602D03*
D27*
X11982Y89602D03*
D28*
X54582Y89402D03*
D36*
X44182Y89402D03*
D21*
X37082Y89402D03*
X29882Y89402D03*
D36*
X22782Y89402D03*
D27*
X11982Y89402D03*
D28*
X54582Y89202D03*
D21*
X44282Y89202D03*
X37082Y89202D03*
D43*
X29782Y89202D03*
D21*
X22682Y89202D03*
D27*
X11982Y89202D03*
D28*
X54582Y89002D03*
D21*
X44282Y89002D03*
X37082Y89002D03*
D43*
X29782Y89002D03*
D21*
X22682Y89002D03*
D27*
X11982Y89002D03*
D28*
X54582Y88802D03*
D21*
X44282Y88802D03*
X37082Y88802D03*
D43*
X29782Y88802D03*
D21*
X22682Y88802D03*
D27*
X11982Y88802D03*
D28*
X54582Y88602D03*
D21*
X44282Y88602D03*
X37082Y88602D03*
D43*
X29782Y88602D03*
D21*
X22682Y88602D03*
D27*
X11982Y88602D03*
D28*
X54582Y88402D03*
D21*
X44282Y88402D03*
X37082Y88402D03*
D43*
X29782Y88402D03*
D21*
X22682Y88402D03*
D27*
X11982Y88402D03*
D28*
X54582Y88202D03*
D21*
X44282Y88202D03*
X37082Y88202D03*
D43*
X29782Y88202D03*
D21*
X22682Y88202D03*
D27*
X11982Y88202D03*
D28*
X54582Y88002D03*
D21*
X44282Y88002D03*
X37082Y88002D03*
D43*
X29782Y88002D03*
D21*
X22682Y88002D03*
D60*
X11882Y88002D03*
D28*
X54582Y87802D03*
D21*
X44282Y87802D03*
X37082Y87802D03*
D43*
X29782Y87802D03*
D21*
X22682Y87802D03*
D60*
X11882Y87802D03*
D28*
X54582Y87602D03*
D21*
X44282Y87602D03*
X37082Y87602D03*
D43*
X29782Y87602D03*
D21*
X22682Y87602D03*
D60*
X11882Y87602D03*
D28*
X54582Y87402D03*
D21*
X44282Y87402D03*
X37082Y87402D03*
D43*
X29782Y87402D03*
D21*
X22682Y87402D03*
D60*
X11882Y87402D03*
D28*
X54582Y87202D03*
D21*
X44282Y87202D03*
X37082Y87202D03*
D43*
X29782Y87202D03*
D21*
X22682Y87202D03*
D60*
X11882Y87202D03*
D28*
X54582Y87002D03*
D21*
X44282Y87002D03*
X37082Y87002D03*
D43*
X29782Y87002D03*
D21*
X22682Y87002D03*
D60*
X11882Y87002D03*
D28*
X54582Y86802D03*
D21*
X44282Y86802D03*
X37082Y86802D03*
D43*
X29782Y86802D03*
D21*
X22682Y86802D03*
D60*
X11882Y86802D03*
D28*
X54582Y86602D03*
D21*
X44282Y86602D03*
X37082Y86602D03*
D43*
X29782Y86602D03*
D21*
X22682Y86602D03*
D60*
X11882Y86602D03*
D28*
X54582Y86402D03*
D21*
X44282Y86402D03*
X37082Y86402D03*
D43*
X29782Y86402D03*
D21*
X22682Y86402D03*
D27*
X11982Y86402D03*
D28*
X54582Y86202D03*
D21*
X44282Y86202D03*
X37082Y86202D03*
D43*
X29782Y86202D03*
D21*
X22682Y86202D03*
D27*
X11982Y86202D03*
D28*
X54582Y86002D03*
D21*
X44282Y86002D03*
X37082Y86002D03*
D43*
X29782Y86002D03*
D21*
X22682Y86002D03*
D27*
X11982Y86002D03*
D28*
X54582Y85802D03*
D21*
X44282Y85802D03*
X37082Y85802D03*
D43*
X29782Y85802D03*
D21*
X22682Y85802D03*
D27*
X11982Y85802D03*
D28*
X54582Y85602D03*
D21*
X44282Y85602D03*
X37082Y85602D03*
D43*
X29782Y85602D03*
D21*
X22682Y85602D03*
D27*
X11982Y85602D03*
D28*
X54582Y85402D03*
D21*
X44282Y85402D03*
X37082Y85402D03*
D43*
X29782Y85402D03*
D21*
X22682Y85402D03*
D27*
X11982Y85402D03*
D28*
X54582Y85202D03*
D21*
X44282Y85202D03*
X37082Y85202D03*
D43*
X29782Y85202D03*
D21*
X22682Y85202D03*
D27*
X11982Y85202D03*
D25*
X54482Y85002D03*
D21*
X44282Y85002D03*
X37082Y85002D03*
D43*
X29782Y85002D03*
D21*
X22682Y85002D03*
D27*
X11982Y85002D03*
D25*
X54482Y84802D03*
D36*
X44182Y84802D03*
D21*
X37082Y84802D03*
X29882Y84802D03*
D36*
X22782Y84802D03*
D27*
X11982Y84802D03*
D25*
X54482Y84602D03*
D27*
X11982Y84602D03*
D25*
X54482Y84402D03*
D27*
X11982Y84402D03*
D25*
X54482Y84202D03*
D27*
X11982Y84202D03*
D25*
X54482Y84002D03*
D27*
X11982Y84002D03*
D25*
X54482Y83802D03*
D27*
X11982Y83802D03*
D25*
X54482Y83602D03*
D141*
X12082Y83602D03*
D25*
X54482Y83402D03*
D141*
X12082Y83402D03*
D25*
X54482Y83202D03*
D141*
X12082Y83202D03*
D26*
X54382Y83002D03*
D141*
X12082Y83002D03*
D26*
X54382Y82802D03*
D28*
X12182Y82802D03*
D26*
X54382Y82602D03*
D28*
X12182Y82602D03*
D26*
X54382Y82402D03*
D28*
X12182Y82402D03*
D26*
X54382Y82202D03*
D28*
X12182Y82202D03*
D50*
X54282Y82002D03*
D28*
X12182Y82002D03*
D50*
X54282Y81802D03*
D28*
X12182Y81802D03*
D50*
X54282Y81602D03*
D25*
X12282Y81602D03*
D50*
X54282Y81402D03*
D25*
X12282Y81402D03*
D48*
X54182Y81202D03*
D25*
X12282Y81202D03*
D48*
X54182Y81002D03*
D25*
X12282Y81002D03*
D48*
X54182Y80802D03*
D26*
X12382Y80802D03*
D48*
X54182Y80602D03*
D26*
X12382Y80602D03*
D23*
X54082Y80402D03*
D26*
X12382Y80402D03*
D23*
X54082Y80202D03*
D50*
X12482Y80202D03*
D48*
X53982Y80002D03*
D26*
X12582Y80002D03*
D142*
X49282Y79802D03*
D28*
X33582Y79802D03*
D143*
X17382Y79802D03*
D142*
X49282Y79602D03*
D28*
X33582Y79602D03*
D143*
X17382Y79602D03*
D142*
X49282Y79402D03*
D28*
X33582Y79402D03*
D144*
X17482Y79402D03*
D142*
X49282Y79202D03*
D141*
X33482Y79202D03*
D145*
X17382Y79202D03*
D64*
X49182Y79002D03*
D141*
X33482Y79002D03*
D146*
X17482Y79002D03*
D142*
X49082Y78802D03*
D141*
X33482Y78802D03*
D146*
X17482Y78802D03*
D64*
X48982Y78602D03*
D141*
X33482Y78602D03*
D146*
X17482Y78602D03*
D64*
X48982Y78402D03*
D27*
X33382Y78402D03*
D147*
X17382Y78402D03*
D64*
X48982Y78202D03*
D141*
X33282Y78202D03*
D142*
X17482Y78202D03*
D148*
X48882Y78002D03*
D141*
X33282Y78002D03*
D64*
X17382Y78002D03*
D148*
X48882Y77802D03*
D141*
X33282Y77802D03*
D148*
X17482Y77802D03*
X48682Y77602D03*
D27*
X33182Y77602D03*
D148*
X17482Y77602D03*
X48682Y77402D03*
D27*
X33182Y77402D03*
D149*
X17482Y77402D03*
D150*
X48582Y77202D03*
D141*
X33082Y77202D03*
D149*
X17482Y77202D03*
D150*
X48582Y77002D03*
D27*
X32982Y77002D03*
D151*
X17382Y77002D03*
D150*
X48582Y76802D03*
D27*
X32982Y76802D03*
D152*
X17482Y76802D03*
D149*
X48482Y76602D03*
D27*
X32982Y76602D03*
D153*
X17482Y76602D03*
D150*
X48382Y76402D03*
D27*
X32782Y76402D03*
D153*
X17482Y76402D03*
D149*
X48282Y76202D03*
D27*
X32782Y76202D03*
D154*
X17382Y76202D03*
D149*
X48282Y76002D03*
D27*
X32782Y76002D03*
D155*
X17382Y76002D03*
D151*
X48182Y75802D03*
D60*
X32682Y75802D03*
D155*
X17382Y75802D03*
D149*
X48082Y75602D03*
D27*
X32582Y75602D03*
D156*
X17382Y75602D03*
D151*
X47982Y75402D03*
D60*
X32482Y75402D03*
D157*
X17482Y75402D03*
D152*
X47882Y75202D03*
D60*
X32482Y75202D03*
D62*
X17382Y75202D03*
D152*
X47882Y75002D03*
D60*
X32282Y75002D03*
D39*
X17382Y75002D03*
D152*
X47682Y74802D03*
D60*
X32282Y74802D03*
D39*
X17382Y74802D03*
D152*
X47682Y74602D03*
D29*
X32182Y74602D03*
D32*
X17382Y74602D03*
D63*
X47582Y74402D03*
D60*
X32082Y74402D03*
D30*
X17282Y74402D03*
D153*
X47482Y74202D03*
D29*
X31982Y74202D03*
D158*
X17282Y74202D03*
D63*
X47382Y74002D03*
D29*
X31982Y74002D03*
D159*
X17382Y74002D03*
D153*
X47282Y73802D03*
D29*
X31782Y73802D03*
D160*
X17282Y73802D03*
D63*
X47182Y73602D03*
D29*
X31782Y73602D03*
D42*
X17282Y73602D03*
D153*
X47082Y73402D03*
D29*
X31582Y73402D03*
D40*
X17282Y73402D03*
D154*
X46982Y73202D03*
D58*
X31482Y73202D03*
D38*
X17182Y73202D03*
D154*
X46982Y73002D03*
D58*
X31482Y73002D03*
D37*
X17182Y73002D03*
D154*
X46782Y72802D03*
D58*
X31282Y72802D03*
D61*
X17182Y72802D03*
D161*
X46682Y72602D03*
D58*
X31282Y72602D03*
D31*
X17082Y72602D03*
D161*
X46482Y72402D03*
D58*
X31082Y72402D03*
X17082Y72402D03*
D161*
X46482Y72202D03*
D162*
X30982Y72202D03*
D27*
X16982Y72202D03*
D155*
X46382Y72002D03*
D162*
X30782Y72002D03*
D28*
X16982Y72002D03*
D155*
X46182Y71802D03*
D162*
X30782Y71802D03*
D25*
X16882Y71802D03*
D155*
X46182Y71602D03*
D162*
X30582Y71602D03*
D50*
X16882Y71602D03*
D156*
X45982Y71402D03*
D31*
X30482Y71402D03*
D22*
X16782Y71402D03*
D163*
X45882Y71202D03*
D31*
X30282Y71202D03*
D21*
X16682Y71202D03*
D156*
X45782Y71002D03*
D31*
X30282Y71002D03*
D33*
X16682Y71002D03*
D156*
X45582Y70802D03*
D31*
X30082Y70802D03*
D20*
X16582Y70802D03*
D157*
X45482Y70602D03*
D61*
X29982Y70602D03*
D15*
X16482Y70602D03*
D157*
X45282Y70402D03*
D61*
X29782Y70402D03*
D17*
X16282Y70402D03*
D62*
X45182Y70202D03*
D34*
X29682Y70202D03*
D55*
X16182Y70202D03*
D62*
X44982Y70002D03*
D34*
X29482Y70002D03*
D16*
X15982Y70002D03*
D41*
X44882Y69802D03*
D34*
X29282Y69802D03*
D164*
X15982Y69802D03*
D41*
X44682Y69602D03*
D37*
X29182Y69602D03*
D39*
X44582Y69402D03*
D37*
X28982Y69402D03*
D39*
X44382Y69202D03*
D57*
X28882Y69202D03*
D35*
X44282Y69002D03*
D57*
X28682Y69002D03*
D35*
X44082Y68802D03*
D57*
X28482Y68802D03*
D32*
X43982Y68602D03*
D57*
X28282Y68602D03*
D32*
X43782Y68402D03*
D40*
X28082Y68402D03*
D30*
X43682Y68202D03*
D40*
X27882Y68202D03*
D30*
X43482Y68002D03*
D40*
X27682Y68002D03*
D158*
X43282Y67802D03*
D42*
X27482Y67802D03*
D158*
X43082Y67602D03*
D42*
X27282Y67602D03*
D158*
X42882Y67402D03*
D42*
X27082Y67402D03*
D160*
X42682Y67202D03*
D56*
X26782Y67202D03*
D160*
X42482Y67002D03*
D159*
X26582Y67002D03*
D42*
X42282Y66802D03*
D159*
X26382Y66802D03*
D42*
X42082Y66602D03*
D158*
X26082Y66602D03*
D45*
X41782Y66402D03*
D59*
X25782Y66402D03*
D45*
X41582Y66202D03*
D30*
X25482Y66202D03*
D38*
X41382Y66002D03*
D32*
X25182Y66002D03*
D57*
X41082Y65802D03*
D35*
X24882Y65802D03*
D37*
X40982Y65602D03*
D41*
X24482Y65602D03*
D34*
X40682Y65402D03*
D62*
X24182Y65402D03*
D61*
X40382Y65202D03*
D163*
X23682Y65202D03*
D31*
X40082Y65002D03*
D161*
X23282Y65002D03*
D58*
X39882Y64802D03*
D63*
X22782Y64802D03*
D29*
X39582Y64602D03*
D150*
X22182Y64602D03*
D60*
X39282Y64402D03*
D145*
X21382Y64402D03*
D49*
X12382Y64402D03*
D141*
X38882Y64202D03*
D165*
X19682Y64202D03*
D28*
X38582Y64002D03*
D67*
X19582Y64002D03*
D48*
X38182Y63802D03*
D166*
X19482Y63802D03*
D22*
X37782Y63602D03*
D167*
X19382Y63602D03*
D43*
X37382Y63402D03*
D168*
X19282Y63402D03*
D33*
X36882Y63202D03*
D169*
X19182Y63202D03*
D24*
X36482Y63002D03*
D66*
X18982Y63002D03*
D51*
X35782Y62802D03*
D170*
X18882Y62802D03*
D13*
X35082Y62602D03*
D171*
X18782Y62602D03*
D172*
X18582Y62402D03*
D65*
X18482Y62202D03*
D144*
X18282Y62002D03*
D145*
X18182Y61802D03*
D146*
X18082Y61602D03*
D142*
X17882Y61402D03*
D148*
X17682Y61202D03*
D150*
X17582Y61002D03*
D151*
X17382Y60802D03*
D63*
X17182Y60602D03*
D154*
X16982Y60402D03*
D155*
X16782Y60202D03*
D156*
X16582Y60002D03*
D62*
X16382Y59802D03*
D35*
X16082Y59602D03*
D30*
X15882Y59402D03*
D159*
X15582Y59202D03*
D56*
X15382Y59002D03*
D38*
X14982Y58802D03*
D34*
X14682Y58602D03*
D162*
X14382Y58402D03*
D141*
X13882Y58202D03*
D50*
X13482Y58002D03*
D33*
X12682Y57802D03*
M02*
