G04 EAGLE Gerber RS-274X export*
G75*
%MOMM*%
%FSLAX34Y34*%
%LPD*%
%AMOC8*
5,1,8,0,0,1.08239X$1,22.5*%
G01*
%ADD10C,0.025400*%
%ADD11C,0.000000*%


D10*
X0Y0D02*
X280000Y0D01*
X280000Y258000D01*
X0Y258000D01*
X0Y0D01*
D11*
X5000Y20000D02*
X5005Y20368D01*
X5018Y20736D01*
X5041Y21103D01*
X5072Y21470D01*
X5113Y21836D01*
X5162Y22201D01*
X5221Y22564D01*
X5288Y22926D01*
X5364Y23287D01*
X5450Y23645D01*
X5543Y24001D01*
X5646Y24354D01*
X5757Y24705D01*
X5877Y25053D01*
X6005Y25398D01*
X6142Y25740D01*
X6287Y26079D01*
X6440Y26413D01*
X6602Y26744D01*
X6771Y27071D01*
X6949Y27393D01*
X7134Y27712D01*
X7327Y28025D01*
X7528Y28334D01*
X7736Y28637D01*
X7952Y28935D01*
X8175Y29228D01*
X8405Y29516D01*
X8642Y29798D01*
X8886Y30073D01*
X9136Y30343D01*
X9393Y30607D01*
X9657Y30864D01*
X9927Y31114D01*
X10202Y31358D01*
X10484Y31595D01*
X10772Y31825D01*
X11065Y32048D01*
X11363Y32264D01*
X11666Y32472D01*
X11975Y32673D01*
X12288Y32866D01*
X12607Y33051D01*
X12929Y33229D01*
X13256Y33398D01*
X13587Y33560D01*
X13921Y33713D01*
X14260Y33858D01*
X14602Y33995D01*
X14947Y34123D01*
X15295Y34243D01*
X15646Y34354D01*
X15999Y34457D01*
X16355Y34550D01*
X16713Y34636D01*
X17074Y34712D01*
X17436Y34779D01*
X17799Y34838D01*
X18164Y34887D01*
X18530Y34928D01*
X18897Y34959D01*
X19264Y34982D01*
X19632Y34995D01*
X20000Y35000D01*
X20368Y34995D01*
X20736Y34982D01*
X21103Y34959D01*
X21470Y34928D01*
X21836Y34887D01*
X22201Y34838D01*
X22564Y34779D01*
X22926Y34712D01*
X23287Y34636D01*
X23645Y34550D01*
X24001Y34457D01*
X24354Y34354D01*
X24705Y34243D01*
X25053Y34123D01*
X25398Y33995D01*
X25740Y33858D01*
X26079Y33713D01*
X26413Y33560D01*
X26744Y33398D01*
X27071Y33229D01*
X27393Y33051D01*
X27712Y32866D01*
X28025Y32673D01*
X28334Y32472D01*
X28637Y32264D01*
X28935Y32048D01*
X29228Y31825D01*
X29516Y31595D01*
X29798Y31358D01*
X30073Y31114D01*
X30343Y30864D01*
X30607Y30607D01*
X30864Y30343D01*
X31114Y30073D01*
X31358Y29798D01*
X31595Y29516D01*
X31825Y29228D01*
X32048Y28935D01*
X32264Y28637D01*
X32472Y28334D01*
X32673Y28025D01*
X32866Y27712D01*
X33051Y27393D01*
X33229Y27071D01*
X33398Y26744D01*
X33560Y26413D01*
X33713Y26079D01*
X33858Y25740D01*
X33995Y25398D01*
X34123Y25053D01*
X34243Y24705D01*
X34354Y24354D01*
X34457Y24001D01*
X34550Y23645D01*
X34636Y23287D01*
X34712Y22926D01*
X34779Y22564D01*
X34838Y22201D01*
X34887Y21836D01*
X34928Y21470D01*
X34959Y21103D01*
X34982Y20736D01*
X34995Y20368D01*
X35000Y20000D01*
X34995Y19632D01*
X34982Y19264D01*
X34959Y18897D01*
X34928Y18530D01*
X34887Y18164D01*
X34838Y17799D01*
X34779Y17436D01*
X34712Y17074D01*
X34636Y16713D01*
X34550Y16355D01*
X34457Y15999D01*
X34354Y15646D01*
X34243Y15295D01*
X34123Y14947D01*
X33995Y14602D01*
X33858Y14260D01*
X33713Y13921D01*
X33560Y13587D01*
X33398Y13256D01*
X33229Y12929D01*
X33051Y12607D01*
X32866Y12288D01*
X32673Y11975D01*
X32472Y11666D01*
X32264Y11363D01*
X32048Y11065D01*
X31825Y10772D01*
X31595Y10484D01*
X31358Y10202D01*
X31114Y9927D01*
X30864Y9657D01*
X30607Y9393D01*
X30343Y9136D01*
X30073Y8886D01*
X29798Y8642D01*
X29516Y8405D01*
X29228Y8175D01*
X28935Y7952D01*
X28637Y7736D01*
X28334Y7528D01*
X28025Y7327D01*
X27712Y7134D01*
X27393Y6949D01*
X27071Y6771D01*
X26744Y6602D01*
X26413Y6440D01*
X26079Y6287D01*
X25740Y6142D01*
X25398Y6005D01*
X25053Y5877D01*
X24705Y5757D01*
X24354Y5646D01*
X24001Y5543D01*
X23645Y5450D01*
X23287Y5364D01*
X22926Y5288D01*
X22564Y5221D01*
X22201Y5162D01*
X21836Y5113D01*
X21470Y5072D01*
X21103Y5041D01*
X20736Y5018D01*
X20368Y5005D01*
X20000Y5000D01*
X19632Y5005D01*
X19264Y5018D01*
X18897Y5041D01*
X18530Y5072D01*
X18164Y5113D01*
X17799Y5162D01*
X17436Y5221D01*
X17074Y5288D01*
X16713Y5364D01*
X16355Y5450D01*
X15999Y5543D01*
X15646Y5646D01*
X15295Y5757D01*
X14947Y5877D01*
X14602Y6005D01*
X14260Y6142D01*
X13921Y6287D01*
X13587Y6440D01*
X13256Y6602D01*
X12929Y6771D01*
X12607Y6949D01*
X12288Y7134D01*
X11975Y7327D01*
X11666Y7528D01*
X11363Y7736D01*
X11065Y7952D01*
X10772Y8175D01*
X10484Y8405D01*
X10202Y8642D01*
X9927Y8886D01*
X9657Y9136D01*
X9393Y9393D01*
X9136Y9657D01*
X8886Y9927D01*
X8642Y10202D01*
X8405Y10484D01*
X8175Y10772D01*
X7952Y11065D01*
X7736Y11363D01*
X7528Y11666D01*
X7327Y11975D01*
X7134Y12288D01*
X6949Y12607D01*
X6771Y12929D01*
X6602Y13256D01*
X6440Y13587D01*
X6287Y13921D01*
X6142Y14260D01*
X6005Y14602D01*
X5877Y14947D01*
X5757Y15295D01*
X5646Y15646D01*
X5543Y15999D01*
X5450Y16355D01*
X5364Y16713D01*
X5288Y17074D01*
X5221Y17436D01*
X5162Y17799D01*
X5113Y18164D01*
X5072Y18530D01*
X5041Y18897D01*
X5018Y19264D01*
X5005Y19632D01*
X5000Y20000D01*
X5000Y223200D02*
X5005Y223568D01*
X5018Y223936D01*
X5041Y224303D01*
X5072Y224670D01*
X5113Y225036D01*
X5162Y225401D01*
X5221Y225764D01*
X5288Y226126D01*
X5364Y226487D01*
X5450Y226845D01*
X5543Y227201D01*
X5646Y227554D01*
X5757Y227905D01*
X5877Y228253D01*
X6005Y228598D01*
X6142Y228940D01*
X6287Y229279D01*
X6440Y229613D01*
X6602Y229944D01*
X6771Y230271D01*
X6949Y230593D01*
X7134Y230912D01*
X7327Y231225D01*
X7528Y231534D01*
X7736Y231837D01*
X7952Y232135D01*
X8175Y232428D01*
X8405Y232716D01*
X8642Y232998D01*
X8886Y233273D01*
X9136Y233543D01*
X9393Y233807D01*
X9657Y234064D01*
X9927Y234314D01*
X10202Y234558D01*
X10484Y234795D01*
X10772Y235025D01*
X11065Y235248D01*
X11363Y235464D01*
X11666Y235672D01*
X11975Y235873D01*
X12288Y236066D01*
X12607Y236251D01*
X12929Y236429D01*
X13256Y236598D01*
X13587Y236760D01*
X13921Y236913D01*
X14260Y237058D01*
X14602Y237195D01*
X14947Y237323D01*
X15295Y237443D01*
X15646Y237554D01*
X15999Y237657D01*
X16355Y237750D01*
X16713Y237836D01*
X17074Y237912D01*
X17436Y237979D01*
X17799Y238038D01*
X18164Y238087D01*
X18530Y238128D01*
X18897Y238159D01*
X19264Y238182D01*
X19632Y238195D01*
X20000Y238200D01*
X20368Y238195D01*
X20736Y238182D01*
X21103Y238159D01*
X21470Y238128D01*
X21836Y238087D01*
X22201Y238038D01*
X22564Y237979D01*
X22926Y237912D01*
X23287Y237836D01*
X23645Y237750D01*
X24001Y237657D01*
X24354Y237554D01*
X24705Y237443D01*
X25053Y237323D01*
X25398Y237195D01*
X25740Y237058D01*
X26079Y236913D01*
X26413Y236760D01*
X26744Y236598D01*
X27071Y236429D01*
X27393Y236251D01*
X27712Y236066D01*
X28025Y235873D01*
X28334Y235672D01*
X28637Y235464D01*
X28935Y235248D01*
X29228Y235025D01*
X29516Y234795D01*
X29798Y234558D01*
X30073Y234314D01*
X30343Y234064D01*
X30607Y233807D01*
X30864Y233543D01*
X31114Y233273D01*
X31358Y232998D01*
X31595Y232716D01*
X31825Y232428D01*
X32048Y232135D01*
X32264Y231837D01*
X32472Y231534D01*
X32673Y231225D01*
X32866Y230912D01*
X33051Y230593D01*
X33229Y230271D01*
X33398Y229944D01*
X33560Y229613D01*
X33713Y229279D01*
X33858Y228940D01*
X33995Y228598D01*
X34123Y228253D01*
X34243Y227905D01*
X34354Y227554D01*
X34457Y227201D01*
X34550Y226845D01*
X34636Y226487D01*
X34712Y226126D01*
X34779Y225764D01*
X34838Y225401D01*
X34887Y225036D01*
X34928Y224670D01*
X34959Y224303D01*
X34982Y223936D01*
X34995Y223568D01*
X35000Y223200D01*
X34995Y222832D01*
X34982Y222464D01*
X34959Y222097D01*
X34928Y221730D01*
X34887Y221364D01*
X34838Y220999D01*
X34779Y220636D01*
X34712Y220274D01*
X34636Y219913D01*
X34550Y219555D01*
X34457Y219199D01*
X34354Y218846D01*
X34243Y218495D01*
X34123Y218147D01*
X33995Y217802D01*
X33858Y217460D01*
X33713Y217121D01*
X33560Y216787D01*
X33398Y216456D01*
X33229Y216129D01*
X33051Y215807D01*
X32866Y215488D01*
X32673Y215175D01*
X32472Y214866D01*
X32264Y214563D01*
X32048Y214265D01*
X31825Y213972D01*
X31595Y213684D01*
X31358Y213402D01*
X31114Y213127D01*
X30864Y212857D01*
X30607Y212593D01*
X30343Y212336D01*
X30073Y212086D01*
X29798Y211842D01*
X29516Y211605D01*
X29228Y211375D01*
X28935Y211152D01*
X28637Y210936D01*
X28334Y210728D01*
X28025Y210527D01*
X27712Y210334D01*
X27393Y210149D01*
X27071Y209971D01*
X26744Y209802D01*
X26413Y209640D01*
X26079Y209487D01*
X25740Y209342D01*
X25398Y209205D01*
X25053Y209077D01*
X24705Y208957D01*
X24354Y208846D01*
X24001Y208743D01*
X23645Y208650D01*
X23287Y208564D01*
X22926Y208488D01*
X22564Y208421D01*
X22201Y208362D01*
X21836Y208313D01*
X21470Y208272D01*
X21103Y208241D01*
X20736Y208218D01*
X20368Y208205D01*
X20000Y208200D01*
X19632Y208205D01*
X19264Y208218D01*
X18897Y208241D01*
X18530Y208272D01*
X18164Y208313D01*
X17799Y208362D01*
X17436Y208421D01*
X17074Y208488D01*
X16713Y208564D01*
X16355Y208650D01*
X15999Y208743D01*
X15646Y208846D01*
X15295Y208957D01*
X14947Y209077D01*
X14602Y209205D01*
X14260Y209342D01*
X13921Y209487D01*
X13587Y209640D01*
X13256Y209802D01*
X12929Y209971D01*
X12607Y210149D01*
X12288Y210334D01*
X11975Y210527D01*
X11666Y210728D01*
X11363Y210936D01*
X11065Y211152D01*
X10772Y211375D01*
X10484Y211605D01*
X10202Y211842D01*
X9927Y212086D01*
X9657Y212336D01*
X9393Y212593D01*
X9136Y212857D01*
X8886Y213127D01*
X8642Y213402D01*
X8405Y213684D01*
X8175Y213972D01*
X7952Y214265D01*
X7736Y214563D01*
X7528Y214866D01*
X7327Y215175D01*
X7134Y215488D01*
X6949Y215807D01*
X6771Y216129D01*
X6602Y216456D01*
X6440Y216787D01*
X6287Y217121D01*
X6142Y217460D01*
X6005Y217802D01*
X5877Y218147D01*
X5757Y218495D01*
X5646Y218846D01*
X5543Y219199D01*
X5450Y219555D01*
X5364Y219913D01*
X5288Y220274D01*
X5221Y220636D01*
X5162Y220999D01*
X5113Y221364D01*
X5072Y221730D01*
X5041Y222097D01*
X5018Y222464D01*
X5005Y222832D01*
X5000Y223200D01*
M02*
