G04 EAGLE Gerber RS-274X export*
G75*
%MOMM*%
%FSLAX34Y34*%
%LPD*%
%AMOC8*
5,1,8,0,0,1.08239X$1,22.5*%
G01*
%ADD10R,1.270000X0.635000*%
%ADD11C,0.203200*%
%ADD12R,1.651000X1.651000*%
%ADD13C,1.651000*%
%ADD14C,2.184400*%
%ADD15R,0.635000X1.270000*%
%ADD16C,0.609600*%
%ADD17C,0.177800*%
%ADD18C,1.270000*%
%ADD19C,0.508000*%

G36*
X52809Y5216D02*
X52809Y5216D01*
X52867Y5214D01*
X52949Y5236D01*
X53033Y5248D01*
X53086Y5271D01*
X53142Y5286D01*
X53215Y5329D01*
X53292Y5364D01*
X53337Y5402D01*
X53387Y5431D01*
X53445Y5493D01*
X53509Y5547D01*
X53541Y5596D01*
X53581Y5639D01*
X53620Y5714D01*
X53667Y5784D01*
X53684Y5840D01*
X53711Y5892D01*
X53722Y5960D01*
X53752Y6055D01*
X53755Y6155D01*
X53766Y6223D01*
X53766Y23992D01*
X54830Y25055D01*
X54854Y25062D01*
X54938Y25074D01*
X54991Y25097D01*
X55047Y25112D01*
X55120Y25155D01*
X55197Y25190D01*
X55242Y25228D01*
X55292Y25257D01*
X55350Y25319D01*
X55414Y25373D01*
X55446Y25422D01*
X55486Y25465D01*
X55525Y25540D01*
X55572Y25610D01*
X55589Y25666D01*
X55616Y25718D01*
X55627Y25786D01*
X55657Y25881D01*
X55660Y25981D01*
X55671Y26049D01*
X55671Y111412D01*
X55659Y111499D01*
X55656Y111586D01*
X55639Y111639D01*
X55631Y111694D01*
X55596Y111774D01*
X55569Y111857D01*
X55541Y111896D01*
X55515Y111953D01*
X55419Y112067D01*
X55374Y112130D01*
X38502Y129002D01*
X38433Y129054D01*
X38369Y129114D01*
X38319Y129140D01*
X38275Y129173D01*
X38193Y129204D01*
X38115Y129244D01*
X38068Y129252D01*
X38009Y129274D01*
X37862Y129286D01*
X37784Y129299D01*
X34474Y129299D01*
X29806Y131233D01*
X26233Y134806D01*
X24299Y139474D01*
X24299Y144526D01*
X26233Y149194D01*
X29806Y152767D01*
X34474Y154701D01*
X37784Y154701D01*
X37871Y154713D01*
X37958Y154716D01*
X38011Y154733D01*
X38066Y154741D01*
X38146Y154776D01*
X38229Y154803D01*
X38268Y154831D01*
X38325Y154857D01*
X38439Y154953D01*
X38502Y154998D01*
X66395Y182891D01*
X69383Y184129D01*
X232747Y184129D01*
X232833Y184141D01*
X232921Y184144D01*
X232973Y184161D01*
X233028Y184169D01*
X233108Y184204D01*
X233191Y184231D01*
X233230Y184259D01*
X233288Y184285D01*
X233401Y184381D01*
X233465Y184426D01*
X235806Y186767D01*
X240474Y188701D01*
X245526Y188701D01*
X250194Y186767D01*
X253767Y183194D01*
X255701Y178526D01*
X255701Y173474D01*
X253767Y168806D01*
X250194Y165233D01*
X245526Y163299D01*
X240474Y163299D01*
X235806Y165233D01*
X233465Y167574D01*
X233395Y167626D01*
X233331Y167686D01*
X233281Y167712D01*
X233237Y167745D01*
X233156Y167776D01*
X233078Y167816D01*
X233030Y167824D01*
X232972Y167846D01*
X232824Y167858D01*
X232747Y167871D01*
X74788Y167871D01*
X74701Y167859D01*
X74614Y167856D01*
X74561Y167839D01*
X74506Y167831D01*
X74426Y167796D01*
X74343Y167769D01*
X74304Y167741D01*
X74247Y167715D01*
X74133Y167619D01*
X74070Y167574D01*
X49998Y143502D01*
X49946Y143433D01*
X49886Y143369D01*
X49860Y143319D01*
X49827Y143275D01*
X49796Y143193D01*
X49756Y143115D01*
X49748Y143068D01*
X49726Y143009D01*
X49714Y142862D01*
X49701Y142784D01*
X49701Y141216D01*
X49708Y141163D01*
X49707Y141135D01*
X49714Y141111D01*
X49716Y141042D01*
X49733Y140989D01*
X49741Y140934D01*
X49776Y140854D01*
X49803Y140771D01*
X49831Y140732D01*
X49857Y140675D01*
X49953Y140561D01*
X49998Y140498D01*
X70691Y119805D01*
X71929Y116817D01*
X71929Y78920D01*
X71933Y78891D01*
X71930Y78861D01*
X71953Y78750D01*
X71969Y78638D01*
X71981Y78612D01*
X71986Y78583D01*
X72039Y78482D01*
X72085Y78379D01*
X72104Y78356D01*
X72117Y78330D01*
X72195Y78248D01*
X72268Y78162D01*
X72293Y78146D01*
X72313Y78124D01*
X72411Y78067D01*
X72505Y78004D01*
X72533Y77995D01*
X72558Y77981D01*
X72668Y77953D01*
X72776Y77918D01*
X72806Y77918D01*
X72834Y77911D01*
X72947Y77914D01*
X73060Y77911D01*
X73089Y77919D01*
X73118Y77920D01*
X73226Y77954D01*
X73335Y77983D01*
X73361Y77998D01*
X73389Y78007D01*
X73452Y78053D01*
X73580Y78128D01*
X73623Y78174D01*
X73662Y78202D01*
X76741Y81281D01*
X80739Y81281D01*
X83567Y78453D01*
X83567Y75821D01*
X83579Y75734D01*
X83582Y75647D01*
X83599Y75594D01*
X83607Y75539D01*
X83642Y75459D01*
X83669Y75376D01*
X83697Y75337D01*
X83723Y75280D01*
X83819Y75166D01*
X83864Y75103D01*
X84374Y74593D01*
X84443Y74541D01*
X84507Y74481D01*
X84557Y74455D01*
X84601Y74422D01*
X84683Y74391D01*
X84760Y74351D01*
X84808Y74343D01*
X84867Y74321D01*
X85014Y74309D01*
X85092Y74296D01*
X89637Y74296D01*
X90679Y73254D01*
X90679Y66548D01*
X90687Y66490D01*
X90685Y66432D01*
X90707Y66350D01*
X90719Y66266D01*
X90742Y66213D01*
X90757Y66157D01*
X90800Y66084D01*
X90835Y66007D01*
X90873Y65962D01*
X90902Y65912D01*
X90964Y65854D01*
X91018Y65790D01*
X91067Y65758D01*
X91110Y65718D01*
X91185Y65679D01*
X91255Y65632D01*
X91311Y65615D01*
X91363Y65588D01*
X91431Y65577D01*
X91526Y65547D01*
X91626Y65544D01*
X91694Y65533D01*
X105784Y65533D01*
X105871Y65545D01*
X105958Y65548D01*
X106011Y65565D01*
X106066Y65573D01*
X106145Y65608D01*
X106229Y65635D01*
X106268Y65663D01*
X106325Y65689D01*
X106438Y65785D01*
X106502Y65830D01*
X106713Y66041D01*
X110711Y66041D01*
X113539Y63213D01*
X113539Y62915D01*
X113551Y62829D01*
X113554Y62741D01*
X113571Y62689D01*
X113579Y62634D01*
X113614Y62554D01*
X113641Y62471D01*
X113669Y62432D01*
X113695Y62375D01*
X113791Y62261D01*
X113836Y62198D01*
X118919Y57115D01*
X118919Y24750D01*
X118919Y24748D01*
X118919Y24747D01*
X118940Y24598D01*
X118959Y24468D01*
X118959Y24467D01*
X118959Y24465D01*
X119021Y24330D01*
X119075Y24209D01*
X119076Y24208D01*
X119077Y24206D01*
X119170Y24097D01*
X119258Y23992D01*
X119260Y23991D01*
X119261Y23990D01*
X119273Y23982D01*
X119495Y23834D01*
X119524Y23825D01*
X119545Y23812D01*
X120284Y23506D01*
X123106Y20684D01*
X124634Y16996D01*
X124634Y13004D01*
X123106Y9316D01*
X120731Y6941D01*
X120713Y6917D01*
X120691Y6898D01*
X120628Y6804D01*
X120560Y6714D01*
X120549Y6686D01*
X120533Y6662D01*
X120499Y6554D01*
X120459Y6448D01*
X120456Y6419D01*
X120447Y6391D01*
X120444Y6277D01*
X120435Y6165D01*
X120441Y6136D01*
X120440Y6107D01*
X120469Y5997D01*
X120491Y5886D01*
X120504Y5860D01*
X120512Y5832D01*
X120570Y5734D01*
X120622Y5634D01*
X120642Y5612D01*
X120657Y5587D01*
X120740Y5510D01*
X120818Y5428D01*
X120843Y5413D01*
X120864Y5393D01*
X120965Y5341D01*
X121063Y5284D01*
X121091Y5277D01*
X121118Y5263D01*
X121195Y5250D01*
X121338Y5214D01*
X121401Y5216D01*
X121449Y5208D01*
X133151Y5208D01*
X133180Y5212D01*
X133210Y5209D01*
X133321Y5232D01*
X133433Y5248D01*
X133460Y5260D01*
X133488Y5265D01*
X133589Y5318D01*
X133692Y5364D01*
X133715Y5383D01*
X133741Y5396D01*
X133823Y5474D01*
X133909Y5547D01*
X133926Y5572D01*
X133947Y5592D01*
X134004Y5690D01*
X134067Y5784D01*
X134076Y5812D01*
X134091Y5837D01*
X134118Y5947D01*
X134153Y6055D01*
X134153Y6085D01*
X134161Y6113D01*
X134157Y6226D01*
X134160Y6339D01*
X134153Y6368D01*
X134152Y6397D01*
X134117Y6505D01*
X134088Y6614D01*
X134073Y6640D01*
X134064Y6668D01*
X134019Y6731D01*
X133943Y6859D01*
X133897Y6902D01*
X133869Y6941D01*
X131494Y9316D01*
X129966Y13004D01*
X129966Y16996D01*
X131494Y20684D01*
X134316Y23506D01*
X138004Y25034D01*
X141996Y25034D01*
X144258Y24097D01*
X144260Y24096D01*
X144261Y24096D01*
X144395Y24061D01*
X144533Y24026D01*
X144535Y24026D01*
X144536Y24025D01*
X144677Y24030D01*
X144817Y24034D01*
X144819Y24034D01*
X144821Y24034D01*
X144953Y24077D01*
X145088Y24121D01*
X145090Y24121D01*
X145091Y24122D01*
X145103Y24130D01*
X145324Y24279D01*
X145344Y24302D01*
X145364Y24317D01*
X198076Y77028D01*
X198128Y77098D01*
X198188Y77162D01*
X198214Y77211D01*
X198247Y77255D01*
X198278Y77337D01*
X198318Y77415D01*
X198326Y77463D01*
X198348Y77521D01*
X198360Y77669D01*
X198373Y77746D01*
X198373Y84448D01*
X198366Y84498D01*
X198367Y84514D01*
X198361Y84535D01*
X198358Y84622D01*
X198341Y84675D01*
X198333Y84730D01*
X198298Y84809D01*
X198271Y84893D01*
X198243Y84932D01*
X198217Y84989D01*
X198121Y85102D01*
X198076Y85166D01*
X196341Y86901D01*
X196341Y90899D01*
X199169Y93727D01*
X203167Y93727D01*
X203498Y93396D01*
X203522Y93378D01*
X203541Y93356D01*
X203635Y93293D01*
X203725Y93225D01*
X203753Y93215D01*
X203777Y93198D01*
X203885Y93164D01*
X203991Y93124D01*
X204020Y93121D01*
X204048Y93112D01*
X204162Y93110D01*
X204274Y93100D01*
X204303Y93106D01*
X204332Y93105D01*
X204442Y93134D01*
X204553Y93156D01*
X204579Y93170D01*
X204607Y93177D01*
X204705Y93235D01*
X204805Y93287D01*
X204827Y93307D01*
X204852Y93322D01*
X204929Y93405D01*
X205011Y93483D01*
X205026Y93508D01*
X205046Y93530D01*
X205098Y93631D01*
X205155Y93728D01*
X205162Y93757D01*
X205176Y93783D01*
X205189Y93860D01*
X205225Y94004D01*
X205223Y94066D01*
X205231Y94114D01*
X205231Y94608D01*
X205224Y94657D01*
X205225Y94666D01*
X205221Y94679D01*
X205219Y94695D01*
X205216Y94782D01*
X205199Y94835D01*
X205191Y94890D01*
X205156Y94969D01*
X205129Y95053D01*
X205101Y95092D01*
X205075Y95149D01*
X204979Y95262D01*
X204934Y95326D01*
X203199Y97061D01*
X203199Y101059D01*
X206027Y103887D01*
X210025Y103887D01*
X212853Y101059D01*
X212853Y97061D01*
X211118Y95326D01*
X211066Y95256D01*
X211006Y95192D01*
X210980Y95143D01*
X210947Y95099D01*
X210916Y95017D01*
X210876Y94939D01*
X210868Y94892D01*
X210846Y94833D01*
X210837Y94725D01*
X210835Y94718D01*
X210834Y94689D01*
X210834Y94686D01*
X210821Y94608D01*
X210821Y56468D01*
X208886Y54534D01*
X174717Y20364D01*
X174716Y20363D01*
X174715Y20362D01*
X174627Y20245D01*
X174546Y20137D01*
X174545Y20136D01*
X174544Y20134D01*
X174495Y20003D01*
X174445Y19872D01*
X174445Y19870D01*
X174444Y19869D01*
X174432Y19724D01*
X174421Y19588D01*
X174421Y19587D01*
X174421Y19585D01*
X174425Y19570D01*
X174477Y19310D01*
X174491Y19282D01*
X174497Y19258D01*
X175434Y16996D01*
X175434Y13004D01*
X173906Y9316D01*
X171531Y6941D01*
X171513Y6917D01*
X171491Y6898D01*
X171428Y6804D01*
X171360Y6714D01*
X171349Y6686D01*
X171333Y6662D01*
X171299Y6554D01*
X171259Y6448D01*
X171256Y6419D01*
X171247Y6391D01*
X171244Y6277D01*
X171235Y6165D01*
X171241Y6136D01*
X171240Y6107D01*
X171269Y5997D01*
X171291Y5886D01*
X171304Y5860D01*
X171312Y5832D01*
X171370Y5734D01*
X171422Y5634D01*
X171442Y5612D01*
X171457Y5587D01*
X171540Y5510D01*
X171618Y5428D01*
X171643Y5413D01*
X171664Y5393D01*
X171765Y5341D01*
X171863Y5284D01*
X171891Y5277D01*
X171918Y5263D01*
X171995Y5250D01*
X172138Y5214D01*
X172201Y5216D01*
X172249Y5208D01*
X183951Y5208D01*
X183980Y5212D01*
X184010Y5209D01*
X184121Y5232D01*
X184233Y5248D01*
X184260Y5260D01*
X184288Y5265D01*
X184389Y5318D01*
X184492Y5364D01*
X184515Y5383D01*
X184541Y5396D01*
X184623Y5474D01*
X184709Y5547D01*
X184726Y5572D01*
X184747Y5592D01*
X184804Y5690D01*
X184867Y5784D01*
X184876Y5812D01*
X184891Y5837D01*
X184918Y5947D01*
X184953Y6055D01*
X184953Y6085D01*
X184961Y6113D01*
X184957Y6226D01*
X184960Y6339D01*
X184953Y6368D01*
X184952Y6397D01*
X184917Y6505D01*
X184888Y6614D01*
X184873Y6640D01*
X184864Y6668D01*
X184819Y6731D01*
X184743Y6859D01*
X184697Y6902D01*
X184669Y6941D01*
X182294Y9316D01*
X180766Y13004D01*
X180766Y16996D01*
X182294Y20684D01*
X185116Y23506D01*
X188804Y25034D01*
X192796Y25034D01*
X196484Y23506D01*
X199306Y20684D01*
X200834Y16996D01*
X200834Y13004D01*
X199306Y9316D01*
X196931Y6941D01*
X196913Y6917D01*
X196891Y6898D01*
X196828Y6804D01*
X196760Y6714D01*
X196749Y6686D01*
X196733Y6662D01*
X196699Y6554D01*
X196659Y6448D01*
X196656Y6419D01*
X196647Y6391D01*
X196644Y6277D01*
X196635Y6165D01*
X196641Y6136D01*
X196640Y6107D01*
X196669Y5997D01*
X196691Y5886D01*
X196704Y5860D01*
X196712Y5832D01*
X196770Y5734D01*
X196822Y5634D01*
X196842Y5612D01*
X196857Y5587D01*
X196940Y5510D01*
X197018Y5428D01*
X197043Y5413D01*
X197064Y5393D01*
X197165Y5341D01*
X197263Y5284D01*
X197291Y5277D01*
X197318Y5263D01*
X197395Y5250D01*
X197538Y5214D01*
X197601Y5216D01*
X197649Y5208D01*
X209351Y5208D01*
X209380Y5212D01*
X209410Y5209D01*
X209521Y5232D01*
X209633Y5248D01*
X209660Y5260D01*
X209688Y5265D01*
X209789Y5318D01*
X209892Y5364D01*
X209915Y5383D01*
X209941Y5396D01*
X210023Y5474D01*
X210109Y5547D01*
X210126Y5572D01*
X210147Y5592D01*
X210204Y5690D01*
X210267Y5784D01*
X210276Y5812D01*
X210291Y5837D01*
X210318Y5947D01*
X210353Y6055D01*
X210353Y6085D01*
X210361Y6113D01*
X210357Y6226D01*
X210360Y6339D01*
X210353Y6368D01*
X210352Y6397D01*
X210317Y6505D01*
X210288Y6614D01*
X210273Y6640D01*
X210264Y6668D01*
X210219Y6731D01*
X210143Y6859D01*
X210097Y6902D01*
X210069Y6941D01*
X207694Y9316D01*
X206166Y13004D01*
X206166Y16996D01*
X207694Y20684D01*
X210516Y23506D01*
X214204Y25034D01*
X218196Y25034D01*
X221884Y23506D01*
X224706Y20684D01*
X226234Y16996D01*
X226234Y13004D01*
X224706Y9316D01*
X222331Y6941D01*
X222313Y6917D01*
X222291Y6898D01*
X222228Y6804D01*
X222160Y6714D01*
X222149Y6686D01*
X222133Y6662D01*
X222099Y6554D01*
X222059Y6448D01*
X222056Y6419D01*
X222047Y6391D01*
X222044Y6277D01*
X222035Y6165D01*
X222041Y6136D01*
X222040Y6107D01*
X222069Y5997D01*
X222091Y5886D01*
X222104Y5860D01*
X222112Y5832D01*
X222170Y5734D01*
X222222Y5634D01*
X222242Y5612D01*
X222257Y5587D01*
X222340Y5510D01*
X222418Y5428D01*
X222443Y5413D01*
X222464Y5393D01*
X222565Y5341D01*
X222663Y5284D01*
X222691Y5277D01*
X222718Y5263D01*
X222795Y5250D01*
X222938Y5214D01*
X223001Y5216D01*
X223049Y5208D01*
X273777Y5208D01*
X273835Y5216D01*
X273893Y5214D01*
X273975Y5236D01*
X274059Y5248D01*
X274112Y5271D01*
X274168Y5286D01*
X274241Y5329D01*
X274318Y5364D01*
X274363Y5402D01*
X274413Y5431D01*
X274471Y5493D01*
X274535Y5547D01*
X274567Y5596D01*
X274607Y5639D01*
X274646Y5714D01*
X274693Y5784D01*
X274710Y5840D01*
X274737Y5892D01*
X274748Y5960D01*
X274778Y6055D01*
X274781Y6155D01*
X274792Y6223D01*
X274792Y251777D01*
X274784Y251835D01*
X274786Y251893D01*
X274764Y251975D01*
X274752Y252059D01*
X274729Y252112D01*
X274714Y252168D01*
X274671Y252241D01*
X274636Y252318D01*
X274598Y252363D01*
X274569Y252413D01*
X274507Y252471D01*
X274453Y252535D01*
X274404Y252567D01*
X274361Y252607D01*
X274286Y252646D01*
X274216Y252693D01*
X274160Y252710D01*
X274108Y252737D01*
X274040Y252748D01*
X273945Y252778D01*
X273845Y252781D01*
X273777Y252792D01*
X6223Y252792D01*
X6165Y252784D01*
X6107Y252786D01*
X6025Y252764D01*
X5941Y252752D01*
X5888Y252729D01*
X5832Y252714D01*
X5759Y252671D01*
X5682Y252636D01*
X5637Y252598D01*
X5587Y252569D01*
X5529Y252507D01*
X5465Y252453D01*
X5433Y252404D01*
X5393Y252361D01*
X5354Y252286D01*
X5307Y252216D01*
X5290Y252160D01*
X5263Y252108D01*
X5252Y252040D01*
X5222Y251945D01*
X5219Y251845D01*
X5208Y251777D01*
X5208Y239257D01*
X5212Y239228D01*
X5209Y239199D01*
X5232Y239088D01*
X5248Y238976D01*
X5260Y238949D01*
X5265Y238920D01*
X5318Y238819D01*
X5364Y238716D01*
X5383Y238694D01*
X5396Y238668D01*
X5474Y238586D01*
X5547Y238499D01*
X5572Y238483D01*
X5592Y238462D01*
X5690Y238405D01*
X5784Y238342D01*
X5812Y238333D01*
X5837Y238318D01*
X5947Y238290D01*
X6055Y238256D01*
X6085Y238255D01*
X6113Y238248D01*
X6226Y238252D01*
X6339Y238249D01*
X6368Y238256D01*
X6397Y238257D01*
X6505Y238292D01*
X6614Y238320D01*
X6640Y238335D01*
X6668Y238344D01*
X6731Y238390D01*
X6859Y238466D01*
X6902Y238511D01*
X6941Y238539D01*
X8625Y240224D01*
X16006Y243281D01*
X23994Y243281D01*
X31375Y240224D01*
X37024Y234575D01*
X40081Y227194D01*
X40081Y219206D01*
X37024Y211825D01*
X31375Y206176D01*
X23994Y203119D01*
X16006Y203119D01*
X8625Y206176D01*
X6941Y207861D01*
X6917Y207878D01*
X6898Y207901D01*
X6804Y207963D01*
X6714Y208032D01*
X6686Y208042D01*
X6662Y208058D01*
X6554Y208092D01*
X6448Y208133D01*
X6419Y208135D01*
X6391Y208144D01*
X6277Y208147D01*
X6165Y208156D01*
X6136Y208151D01*
X6107Y208151D01*
X5997Y208123D01*
X5886Y208100D01*
X5860Y208087D01*
X5832Y208080D01*
X5734Y208022D01*
X5634Y207969D01*
X5612Y207949D01*
X5587Y207934D01*
X5510Y207852D01*
X5428Y207774D01*
X5413Y207748D01*
X5393Y207727D01*
X5341Y207626D01*
X5284Y207528D01*
X5277Y207500D01*
X5263Y207474D01*
X5250Y207397D01*
X5214Y207253D01*
X5216Y207190D01*
X5208Y207143D01*
X5208Y36057D01*
X5212Y36028D01*
X5209Y35999D01*
X5232Y35888D01*
X5248Y35776D01*
X5260Y35749D01*
X5265Y35720D01*
X5318Y35619D01*
X5364Y35516D01*
X5383Y35494D01*
X5396Y35468D01*
X5474Y35386D01*
X5547Y35299D01*
X5572Y35283D01*
X5592Y35262D01*
X5690Y35205D01*
X5784Y35142D01*
X5812Y35133D01*
X5837Y35118D01*
X5947Y35090D01*
X6055Y35056D01*
X6085Y35055D01*
X6113Y35048D01*
X6226Y35052D01*
X6339Y35049D01*
X6368Y35056D01*
X6397Y35057D01*
X6505Y35092D01*
X6614Y35120D01*
X6640Y35135D01*
X6668Y35144D01*
X6731Y35190D01*
X6859Y35266D01*
X6902Y35311D01*
X6941Y35339D01*
X8625Y37024D01*
X16006Y40081D01*
X23994Y40081D01*
X31375Y37024D01*
X37024Y31375D01*
X40081Y23994D01*
X40081Y16006D01*
X37024Y8625D01*
X35339Y6941D01*
X35322Y6917D01*
X35299Y6898D01*
X35237Y6804D01*
X35168Y6714D01*
X35158Y6686D01*
X35142Y6662D01*
X35108Y6554D01*
X35067Y6448D01*
X35065Y6419D01*
X35056Y6391D01*
X35053Y6277D01*
X35044Y6165D01*
X35049Y6136D01*
X35049Y6107D01*
X35077Y5997D01*
X35100Y5886D01*
X35113Y5860D01*
X35120Y5832D01*
X35178Y5734D01*
X35231Y5634D01*
X35251Y5612D01*
X35266Y5587D01*
X35348Y5510D01*
X35426Y5428D01*
X35452Y5413D01*
X35473Y5393D01*
X35574Y5341D01*
X35672Y5284D01*
X35700Y5277D01*
X35726Y5263D01*
X35803Y5250D01*
X35947Y5214D01*
X36010Y5216D01*
X36057Y5208D01*
X52751Y5208D01*
X52809Y5216D01*
G37*
G36*
X81303Y5212D02*
X81303Y5212D01*
X81332Y5209D01*
X81443Y5232D01*
X81555Y5248D01*
X81582Y5260D01*
X81611Y5265D01*
X81711Y5318D01*
X81815Y5364D01*
X81837Y5383D01*
X81863Y5396D01*
X81945Y5474D01*
X82032Y5547D01*
X82048Y5572D01*
X82069Y5592D01*
X82126Y5690D01*
X82189Y5784D01*
X82198Y5812D01*
X82213Y5837D01*
X82241Y5947D01*
X82275Y6055D01*
X82276Y6085D01*
X82283Y6113D01*
X82279Y6226D01*
X82282Y6339D01*
X82275Y6368D01*
X82274Y6397D01*
X82239Y6505D01*
X82211Y6614D01*
X82196Y6640D01*
X82187Y6668D01*
X82141Y6732D01*
X82065Y6859D01*
X82020Y6902D01*
X81992Y6941D01*
X80965Y7967D01*
X79967Y9342D01*
X79195Y10856D01*
X78670Y12472D01*
X78591Y12969D01*
X88184Y12969D01*
X88242Y12977D01*
X88300Y12975D01*
X88382Y12997D01*
X88465Y13009D01*
X88519Y13033D01*
X88575Y13047D01*
X88648Y13090D01*
X88725Y13125D01*
X88769Y13163D01*
X88820Y13193D01*
X88877Y13254D01*
X88942Y13309D01*
X88974Y13357D01*
X89014Y13400D01*
X89053Y13475D01*
X89099Y13545D01*
X89117Y13601D01*
X89144Y13653D01*
X89155Y13721D01*
X89185Y13816D01*
X89188Y13916D01*
X89199Y13984D01*
X89199Y15001D01*
X89201Y15001D01*
X89201Y13984D01*
X89209Y13926D01*
X89208Y13868D01*
X89229Y13786D01*
X89241Y13703D01*
X89265Y13649D01*
X89279Y13593D01*
X89322Y13520D01*
X89357Y13443D01*
X89395Y13398D01*
X89425Y13348D01*
X89486Y13290D01*
X89541Y13226D01*
X89589Y13194D01*
X89632Y13154D01*
X89707Y13115D01*
X89777Y13069D01*
X89833Y13051D01*
X89885Y13024D01*
X89953Y13013D01*
X90048Y12983D01*
X90148Y12980D01*
X90216Y12969D01*
X99809Y12969D01*
X99730Y12472D01*
X99205Y10856D01*
X98433Y9342D01*
X97435Y7967D01*
X96408Y6941D01*
X96391Y6917D01*
X96368Y6898D01*
X96306Y6804D01*
X96237Y6714D01*
X96227Y6686D01*
X96211Y6662D01*
X96177Y6554D01*
X96136Y6448D01*
X96134Y6419D01*
X96125Y6391D01*
X96122Y6277D01*
X96113Y6165D01*
X96118Y6136D01*
X96118Y6107D01*
X96146Y5997D01*
X96169Y5886D01*
X96182Y5860D01*
X96189Y5832D01*
X96247Y5734D01*
X96300Y5634D01*
X96320Y5612D01*
X96335Y5587D01*
X96417Y5510D01*
X96495Y5428D01*
X96521Y5413D01*
X96542Y5393D01*
X96643Y5341D01*
X96741Y5284D01*
X96769Y5277D01*
X96795Y5263D01*
X96873Y5250D01*
X97016Y5214D01*
X97079Y5216D01*
X97126Y5208D01*
X107751Y5208D01*
X107780Y5212D01*
X107810Y5209D01*
X107921Y5232D01*
X108033Y5248D01*
X108060Y5260D01*
X108088Y5265D01*
X108189Y5318D01*
X108292Y5364D01*
X108315Y5383D01*
X108341Y5396D01*
X108423Y5474D01*
X108509Y5547D01*
X108526Y5572D01*
X108547Y5592D01*
X108604Y5690D01*
X108667Y5784D01*
X108676Y5812D01*
X108691Y5837D01*
X108718Y5947D01*
X108753Y6055D01*
X108753Y6085D01*
X108761Y6113D01*
X108757Y6226D01*
X108760Y6339D01*
X108753Y6368D01*
X108752Y6397D01*
X108717Y6505D01*
X108688Y6614D01*
X108673Y6640D01*
X108664Y6668D01*
X108619Y6731D01*
X108543Y6859D01*
X108497Y6902D01*
X108469Y6941D01*
X106094Y9316D01*
X104566Y13004D01*
X104566Y16996D01*
X106094Y20684D01*
X108916Y23506D01*
X109655Y23812D01*
X109656Y23813D01*
X109657Y23813D01*
X109774Y23882D01*
X109899Y23956D01*
X109901Y23958D01*
X109902Y23958D01*
X109995Y24058D01*
X110095Y24163D01*
X110095Y24165D01*
X110096Y24166D01*
X110161Y24291D01*
X110225Y24416D01*
X110225Y24417D01*
X110226Y24419D01*
X110228Y24434D01*
X110280Y24695D01*
X110277Y24725D01*
X110281Y24750D01*
X110281Y53117D01*
X110269Y53203D01*
X110266Y53291D01*
X110249Y53343D01*
X110241Y53398D01*
X110206Y53478D01*
X110179Y53561D01*
X110151Y53600D01*
X110125Y53657D01*
X110029Y53771D01*
X109984Y53834D01*
X107728Y56090D01*
X107659Y56142D01*
X107595Y56202D01*
X107545Y56228D01*
X107501Y56261D01*
X107420Y56292D01*
X107342Y56332D01*
X107294Y56340D01*
X107236Y56362D01*
X107088Y56374D01*
X107011Y56387D01*
X106713Y56387D01*
X106502Y56598D01*
X106432Y56650D01*
X106368Y56710D01*
X106319Y56736D01*
X106275Y56769D01*
X106193Y56800D01*
X106115Y56840D01*
X106068Y56848D01*
X106009Y56870D01*
X105862Y56882D01*
X105784Y56895D01*
X91694Y56895D01*
X91636Y56887D01*
X91578Y56889D01*
X91496Y56867D01*
X91412Y56855D01*
X91359Y56832D01*
X91303Y56817D01*
X91230Y56774D01*
X91153Y56739D01*
X91108Y56701D01*
X91058Y56672D01*
X91000Y56610D01*
X90936Y56556D01*
X90904Y56507D01*
X90864Y56464D01*
X90825Y56389D01*
X90778Y56319D01*
X90761Y56263D01*
X90734Y56211D01*
X90723Y56143D01*
X90693Y56048D01*
X90690Y55948D01*
X90679Y55880D01*
X90679Y49174D01*
X89637Y48132D01*
X77523Y48132D01*
X77436Y48120D01*
X77349Y48117D01*
X77296Y48100D01*
X77241Y48092D01*
X77162Y48057D01*
X77078Y48030D01*
X77044Y48005D01*
X72944Y48005D01*
X72886Y47997D01*
X72828Y47999D01*
X72746Y47977D01*
X72662Y47965D01*
X72609Y47942D01*
X72553Y47927D01*
X72480Y47884D01*
X72403Y47849D01*
X72358Y47811D01*
X72308Y47782D01*
X72250Y47720D01*
X72186Y47666D01*
X72154Y47617D01*
X72114Y47574D01*
X72075Y47499D01*
X72028Y47429D01*
X72011Y47373D01*
X71984Y47321D01*
X71973Y47253D01*
X71943Y47158D01*
X71940Y47058D01*
X71929Y46990D01*
X71929Y26049D01*
X71937Y25991D01*
X71935Y25933D01*
X71957Y25851D01*
X71969Y25767D01*
X71992Y25714D01*
X72007Y25658D01*
X72050Y25585D01*
X72085Y25508D01*
X72123Y25463D01*
X72152Y25413D01*
X72214Y25355D01*
X72268Y25291D01*
X72317Y25259D01*
X72360Y25219D01*
X72435Y25180D01*
X72505Y25133D01*
X72561Y25116D01*
X72613Y25089D01*
X72681Y25078D01*
X72776Y25048D01*
X72778Y25048D01*
X73834Y23992D01*
X73834Y6223D01*
X73842Y6165D01*
X73840Y6107D01*
X73862Y6025D01*
X73874Y5941D01*
X73897Y5888D01*
X73912Y5832D01*
X73955Y5759D01*
X73990Y5682D01*
X74028Y5637D01*
X74057Y5587D01*
X74119Y5529D01*
X74173Y5465D01*
X74222Y5433D01*
X74265Y5393D01*
X74340Y5354D01*
X74410Y5307D01*
X74466Y5290D01*
X74518Y5263D01*
X74586Y5252D01*
X74681Y5222D01*
X74781Y5219D01*
X74849Y5208D01*
X81274Y5208D01*
X81303Y5212D01*
G37*
%LPC*%
G36*
X244127Y74167D02*
X244127Y74167D01*
X241299Y76995D01*
X241299Y77293D01*
X241291Y77350D01*
X241293Y77407D01*
X241285Y77435D01*
X241284Y77467D01*
X241267Y77519D01*
X241259Y77574D01*
X241234Y77630D01*
X241221Y77682D01*
X241207Y77705D01*
X241197Y77737D01*
X241169Y77776D01*
X241143Y77834D01*
X241101Y77883D01*
X241076Y77926D01*
X241034Y77965D01*
X241002Y78010D01*
X194342Y124670D01*
X194273Y124722D01*
X194209Y124782D01*
X194159Y124808D01*
X194115Y124841D01*
X194034Y124872D01*
X193956Y124912D01*
X193908Y124920D01*
X193850Y124942D01*
X193702Y124954D01*
X193625Y124967D01*
X162694Y124967D01*
X162607Y124955D01*
X162520Y124952D01*
X162467Y124935D01*
X162412Y124927D01*
X162333Y124892D01*
X162249Y124865D01*
X162210Y124837D01*
X162153Y124811D01*
X162040Y124715D01*
X161976Y124670D01*
X161765Y124459D01*
X157767Y124459D01*
X154939Y127287D01*
X154939Y131285D01*
X157767Y134113D01*
X161765Y134113D01*
X161976Y133902D01*
X162046Y133850D01*
X162110Y133790D01*
X162159Y133764D01*
X162203Y133731D01*
X162285Y133700D01*
X162363Y133660D01*
X162410Y133652D01*
X162469Y133630D01*
X162616Y133618D01*
X162694Y133605D01*
X197623Y133605D01*
X247110Y84118D01*
X247179Y84066D01*
X247243Y84006D01*
X247293Y83980D01*
X247337Y83947D01*
X247418Y83916D01*
X247496Y83876D01*
X247544Y83868D01*
X247602Y83846D01*
X247750Y83834D01*
X247827Y83821D01*
X248125Y83821D01*
X250953Y80993D01*
X250953Y76995D01*
X248125Y74167D01*
X244127Y74167D01*
G37*
%LPD*%
G36*
X158580Y5212D02*
X158580Y5212D01*
X158610Y5209D01*
X158721Y5232D01*
X158833Y5248D01*
X158860Y5260D01*
X158888Y5265D01*
X158989Y5318D01*
X159092Y5364D01*
X159115Y5383D01*
X159141Y5396D01*
X159223Y5474D01*
X159309Y5547D01*
X159326Y5572D01*
X159347Y5592D01*
X159404Y5690D01*
X159467Y5784D01*
X159476Y5812D01*
X159491Y5837D01*
X159518Y5947D01*
X159553Y6055D01*
X159553Y6085D01*
X159561Y6113D01*
X159557Y6226D01*
X159560Y6339D01*
X159553Y6368D01*
X159552Y6397D01*
X159517Y6505D01*
X159488Y6614D01*
X159473Y6640D01*
X159464Y6668D01*
X159419Y6731D01*
X159343Y6859D01*
X159297Y6902D01*
X159269Y6941D01*
X156894Y9316D01*
X155366Y13004D01*
X155366Y16996D01*
X156894Y20684D01*
X159716Y23506D01*
X163404Y25034D01*
X167396Y25034D01*
X169658Y24097D01*
X169660Y24096D01*
X169661Y24096D01*
X169795Y24061D01*
X169933Y24026D01*
X169935Y24026D01*
X169936Y24025D01*
X170077Y24030D01*
X170217Y24034D01*
X170219Y24034D01*
X170221Y24034D01*
X170353Y24077D01*
X170488Y24121D01*
X170490Y24121D01*
X170491Y24122D01*
X170503Y24130D01*
X170724Y24279D01*
X170744Y24302D01*
X170764Y24317D01*
X204934Y58486D01*
X204986Y58556D01*
X205046Y58620D01*
X205072Y58669D01*
X205105Y58713D01*
X205136Y58795D01*
X205176Y58873D01*
X205184Y58921D01*
X205206Y58979D01*
X205218Y59127D01*
X205231Y59204D01*
X205231Y73828D01*
X205227Y73857D01*
X205230Y73886D01*
X205207Y73997D01*
X205191Y74109D01*
X205179Y74136D01*
X205174Y74165D01*
X205122Y74265D01*
X205075Y74369D01*
X205056Y74391D01*
X205043Y74417D01*
X204965Y74499D01*
X204892Y74586D01*
X204867Y74602D01*
X204847Y74623D01*
X204749Y74681D01*
X204655Y74743D01*
X204627Y74752D01*
X204602Y74767D01*
X204492Y74795D01*
X204384Y74829D01*
X204354Y74830D01*
X204326Y74837D01*
X204213Y74834D01*
X204100Y74836D01*
X204071Y74829D01*
X204042Y74828D01*
X203934Y74793D01*
X203825Y74765D01*
X203799Y74750D01*
X203771Y74741D01*
X203708Y74695D01*
X203580Y74619D01*
X203537Y74574D01*
X203498Y74546D01*
X149317Y20364D01*
X149316Y20363D01*
X149315Y20362D01*
X149226Y20244D01*
X149146Y20137D01*
X149145Y20136D01*
X149144Y20134D01*
X149093Y19998D01*
X149045Y19872D01*
X149045Y19870D01*
X149044Y19869D01*
X149032Y19724D01*
X149021Y19588D01*
X149021Y19587D01*
X149021Y19585D01*
X149025Y19570D01*
X149077Y19310D01*
X149091Y19282D01*
X149097Y19258D01*
X150034Y16996D01*
X150034Y13004D01*
X148506Y9316D01*
X146131Y6941D01*
X146113Y6917D01*
X146091Y6898D01*
X146028Y6804D01*
X145960Y6714D01*
X145949Y6686D01*
X145933Y6662D01*
X145899Y6554D01*
X145859Y6448D01*
X145856Y6419D01*
X145847Y6391D01*
X145844Y6277D01*
X145835Y6165D01*
X145841Y6136D01*
X145840Y6107D01*
X145869Y5997D01*
X145891Y5886D01*
X145904Y5860D01*
X145912Y5832D01*
X145970Y5734D01*
X146022Y5634D01*
X146042Y5612D01*
X146057Y5587D01*
X146140Y5510D01*
X146218Y5428D01*
X146243Y5413D01*
X146264Y5393D01*
X146365Y5341D01*
X146463Y5284D01*
X146491Y5277D01*
X146518Y5263D01*
X146595Y5250D01*
X146738Y5214D01*
X146801Y5216D01*
X146849Y5208D01*
X158551Y5208D01*
X158580Y5212D01*
G37*
%LPC*%
G36*
X92908Y204966D02*
X92908Y204966D01*
X91866Y206008D01*
X91866Y223992D01*
X92908Y225034D01*
X110892Y225034D01*
X111934Y223992D01*
X111934Y206008D01*
X110892Y204966D01*
X92908Y204966D01*
G37*
%LPD*%
%LPC*%
G36*
X125304Y204966D02*
X125304Y204966D01*
X121616Y206494D01*
X118794Y209316D01*
X117266Y213004D01*
X117266Y216996D01*
X118794Y220684D01*
X121616Y223506D01*
X125304Y225034D01*
X129296Y225034D01*
X132984Y223506D01*
X135806Y220684D01*
X137334Y216996D01*
X137334Y213004D01*
X135806Y209316D01*
X132984Y206494D01*
X129296Y204966D01*
X125304Y204966D01*
G37*
%LPD*%
%LPC*%
G36*
X150704Y204966D02*
X150704Y204966D01*
X147016Y206494D01*
X144194Y209316D01*
X142666Y213004D01*
X142666Y216996D01*
X144194Y220684D01*
X147016Y223506D01*
X150704Y225034D01*
X154696Y225034D01*
X158384Y223506D01*
X161206Y220684D01*
X162734Y216996D01*
X162734Y213004D01*
X161206Y209316D01*
X158384Y206494D01*
X154696Y204966D01*
X150704Y204966D01*
G37*
%LPD*%
%LPC*%
G36*
X81343Y88899D02*
X81343Y88899D01*
X81343Y97218D01*
X81335Y97276D01*
X81336Y97335D01*
X81315Y97416D01*
X81303Y97500D01*
X81279Y97553D01*
X81264Y97610D01*
X81221Y97682D01*
X81187Y97759D01*
X81163Y97787D01*
X81196Y97853D01*
X81243Y97923D01*
X81261Y97979D01*
X81287Y98031D01*
X81299Y98099D01*
X81329Y98194D01*
X81331Y98294D01*
X81343Y98362D01*
X81343Y106681D01*
X83265Y106681D01*
X83912Y106508D01*
X84534Y106148D01*
X84582Y106104D01*
X84631Y106078D01*
X84675Y106045D01*
X84757Y106014D01*
X84835Y105974D01*
X84882Y105966D01*
X84941Y105944D01*
X85089Y105932D01*
X85166Y105919D01*
X91796Y105919D01*
X92838Y104877D01*
X92838Y101600D01*
X92845Y101551D01*
X92844Y101540D01*
X92846Y101535D01*
X92844Y101484D01*
X92866Y101402D01*
X92878Y101318D01*
X92901Y101265D01*
X92916Y101209D01*
X92959Y101136D01*
X92994Y101059D01*
X93032Y101014D01*
X93061Y100964D01*
X93123Y100906D01*
X93177Y100842D01*
X93226Y100810D01*
X93269Y100770D01*
X93344Y100731D01*
X93414Y100684D01*
X93470Y100667D01*
X93522Y100640D01*
X93590Y100629D01*
X93685Y100599D01*
X93785Y100596D01*
X93853Y100585D01*
X94862Y100585D01*
X94949Y100597D01*
X95036Y100600D01*
X95089Y100617D01*
X95144Y100625D01*
X95223Y100660D01*
X95307Y100687D01*
X95346Y100715D01*
X95403Y100741D01*
X95516Y100837D01*
X95580Y100882D01*
X97315Y102617D01*
X101313Y102617D01*
X104141Y99789D01*
X104141Y95791D01*
X101313Y92963D01*
X97315Y92963D01*
X95580Y94698D01*
X95510Y94750D01*
X95446Y94810D01*
X95397Y94836D01*
X95353Y94869D01*
X95271Y94900D01*
X95193Y94940D01*
X95146Y94948D01*
X95087Y94970D01*
X94940Y94982D01*
X94862Y94995D01*
X93853Y94995D01*
X93795Y94987D01*
X93737Y94989D01*
X93655Y94967D01*
X93571Y94955D01*
X93518Y94932D01*
X93462Y94917D01*
X93389Y94874D01*
X93312Y94839D01*
X93267Y94801D01*
X93217Y94772D01*
X93159Y94710D01*
X93095Y94656D01*
X93063Y94607D01*
X93023Y94564D01*
X92984Y94489D01*
X92937Y94419D01*
X92920Y94363D01*
X92893Y94311D01*
X92882Y94243D01*
X92852Y94148D01*
X92849Y94048D01*
X92838Y93980D01*
X92838Y90703D01*
X91796Y89661D01*
X85166Y89661D01*
X85079Y89649D01*
X84992Y89646D01*
X84939Y89629D01*
X84884Y89621D01*
X84805Y89586D01*
X84721Y89559D01*
X84682Y89531D01*
X84625Y89505D01*
X84547Y89439D01*
X83912Y89072D01*
X83265Y88899D01*
X81343Y88899D01*
G37*
%LPD*%
%LPC*%
G36*
X39031Y179031D02*
X39031Y179031D01*
X39031Y190309D01*
X40153Y190131D01*
X42168Y189476D01*
X44056Y188514D01*
X45770Y187269D01*
X47269Y185770D01*
X48514Y184056D01*
X49476Y182168D01*
X50131Y180153D01*
X50309Y179031D01*
X39031Y179031D01*
G37*
%LPD*%
%LPC*%
G36*
X245031Y143031D02*
X245031Y143031D01*
X245031Y154309D01*
X246153Y154131D01*
X248168Y153476D01*
X250056Y152514D01*
X251770Y151269D01*
X253269Y149770D01*
X254514Y148056D01*
X255476Y146168D01*
X256131Y144153D01*
X256309Y143031D01*
X245031Y143031D01*
G37*
%LPD*%
%LPC*%
G36*
X23691Y179031D02*
X23691Y179031D01*
X23869Y180153D01*
X24524Y182168D01*
X25486Y184056D01*
X26731Y185770D01*
X28230Y187269D01*
X29944Y188514D01*
X31832Y189476D01*
X33847Y190131D01*
X34969Y190309D01*
X34969Y179031D01*
X23691Y179031D01*
G37*
%LPD*%
%LPC*%
G36*
X39031Y174969D02*
X39031Y174969D01*
X50309Y174969D01*
X50131Y173847D01*
X49476Y171832D01*
X48514Y169944D01*
X47269Y168230D01*
X45770Y166731D01*
X44056Y165486D01*
X42168Y164524D01*
X40153Y163869D01*
X39031Y163691D01*
X39031Y174969D01*
G37*
%LPD*%
%LPC*%
G36*
X229691Y143031D02*
X229691Y143031D01*
X229869Y144153D01*
X230524Y146168D01*
X231486Y148056D01*
X232731Y149770D01*
X234230Y151269D01*
X235944Y152514D01*
X237832Y153476D01*
X239847Y154131D01*
X240969Y154309D01*
X240969Y143031D01*
X229691Y143031D01*
G37*
%LPD*%
%LPC*%
G36*
X245031Y138969D02*
X245031Y138969D01*
X256309Y138969D01*
X256131Y137847D01*
X255476Y135832D01*
X254514Y133944D01*
X253269Y132230D01*
X251770Y130731D01*
X250056Y129486D01*
X248168Y128524D01*
X246153Y127869D01*
X245031Y127691D01*
X245031Y138969D01*
G37*
%LPD*%
%LPC*%
G36*
X33847Y163869D02*
X33847Y163869D01*
X31832Y164524D01*
X29944Y165486D01*
X28230Y166731D01*
X26731Y168230D01*
X25486Y169944D01*
X24524Y171832D01*
X23869Y173847D01*
X23691Y174969D01*
X34969Y174969D01*
X34969Y163691D01*
X33847Y163869D01*
G37*
%LPD*%
%LPC*%
G36*
X239847Y127869D02*
X239847Y127869D01*
X237832Y128524D01*
X235944Y129486D01*
X234230Y130731D01*
X232731Y132230D01*
X231486Y133944D01*
X230524Y135832D01*
X229869Y137847D01*
X229691Y138969D01*
X240969Y138969D01*
X240969Y127691D01*
X239847Y127869D01*
G37*
%LPD*%
%LPC*%
G36*
X180131Y217031D02*
X180131Y217031D01*
X180131Y225609D01*
X180628Y225530D01*
X182244Y225005D01*
X183758Y224233D01*
X185133Y223234D01*
X186334Y222033D01*
X187333Y220658D01*
X188105Y219144D01*
X188630Y217528D01*
X188709Y217031D01*
X180131Y217031D01*
G37*
%LPD*%
%LPC*%
G36*
X91231Y17031D02*
X91231Y17031D01*
X91231Y25609D01*
X91728Y25530D01*
X93344Y25005D01*
X94858Y24233D01*
X96233Y23234D01*
X97434Y22033D01*
X98433Y20658D01*
X99205Y19144D01*
X99730Y17528D01*
X99809Y17031D01*
X91231Y17031D01*
G37*
%LPD*%
%LPC*%
G36*
X167491Y217031D02*
X167491Y217031D01*
X167570Y217528D01*
X168095Y219144D01*
X168867Y220658D01*
X169866Y222033D01*
X171067Y223234D01*
X172442Y224233D01*
X173956Y225005D01*
X175572Y225530D01*
X176069Y225609D01*
X176069Y217031D01*
X167491Y217031D01*
G37*
%LPD*%
%LPC*%
G36*
X180131Y212969D02*
X180131Y212969D01*
X188709Y212969D01*
X188630Y212472D01*
X188105Y210856D01*
X187333Y209342D01*
X186334Y207967D01*
X185133Y206766D01*
X183758Y205767D01*
X182244Y204995D01*
X180628Y204470D01*
X180131Y204391D01*
X180131Y212969D01*
G37*
%LPD*%
%LPC*%
G36*
X78591Y17031D02*
X78591Y17031D01*
X78670Y17528D01*
X79195Y19144D01*
X79967Y20658D01*
X80966Y22033D01*
X82167Y23234D01*
X83542Y24233D01*
X85056Y25005D01*
X86672Y25530D01*
X87169Y25609D01*
X87169Y17031D01*
X78591Y17031D01*
G37*
%LPD*%
%LPC*%
G36*
X175572Y204470D02*
X175572Y204470D01*
X173956Y204995D01*
X172442Y205767D01*
X171067Y206766D01*
X169866Y207967D01*
X168867Y209342D01*
X168095Y210856D01*
X167570Y212472D01*
X167491Y212969D01*
X176069Y212969D01*
X176069Y204391D01*
X175572Y204470D01*
G37*
%LPD*%
%LPC*%
G36*
X74040Y99377D02*
X74040Y99377D01*
X74040Y104474D01*
X74213Y105121D01*
X74548Y105700D01*
X75021Y106173D01*
X75600Y106508D01*
X76247Y106681D01*
X78169Y106681D01*
X78169Y99377D01*
X74040Y99377D01*
G37*
%LPD*%
%LPC*%
G36*
X76247Y88899D02*
X76247Y88899D01*
X75600Y89072D01*
X75021Y89407D01*
X74548Y89880D01*
X74213Y90459D01*
X74040Y91106D01*
X74040Y96203D01*
X78169Y96203D01*
X78169Y88899D01*
X76247Y88899D01*
G37*
%LPD*%
%LPC*%
G36*
X178099Y214999D02*
X178099Y214999D01*
X178099Y215001D01*
X178101Y215001D01*
X178101Y214999D01*
X178099Y214999D01*
G37*
%LPD*%
%LPC*%
G36*
X36999Y176999D02*
X36999Y176999D01*
X36999Y177001D01*
X37001Y177001D01*
X37001Y176999D01*
X36999Y176999D01*
G37*
%LPD*%
%LPC*%
G36*
X242999Y140999D02*
X242999Y140999D01*
X242999Y141001D01*
X243001Y141001D01*
X243001Y140999D01*
X242999Y140999D01*
G37*
%LPD*%
D10*
X82550Y53086D03*
X82550Y61214D03*
X82550Y69342D03*
D11*
X82550Y61214D02*
X82550Y52832D01*
X82550Y61214D02*
X82550Y69850D01*
D12*
X101900Y215000D03*
D13*
X127300Y215000D03*
X152700Y215000D03*
X178100Y215000D03*
D14*
X37000Y142000D03*
X37000Y177000D03*
X243000Y176000D03*
X243000Y141000D03*
D15*
X79756Y97790D03*
X87884Y97790D03*
D12*
X63800Y15000D03*
D13*
X89200Y15000D03*
X114600Y15000D03*
X140000Y15000D03*
X165400Y15000D03*
X190800Y15000D03*
X216200Y15000D03*
D16*
X127254Y8890D03*
X129794Y41148D03*
X175768Y36322D03*
X152654Y8890D03*
X264668Y69850D03*
X183388Y120650D03*
X264668Y97790D03*
X51054Y60706D03*
X117094Y197866D03*
X140208Y221742D03*
X115316Y222758D03*
X78740Y76454D03*
D17*
X82550Y72644D02*
X82550Y69342D01*
X82550Y72644D02*
X78740Y76454D01*
D16*
X74976Y52832D03*
D17*
X82296Y52832D02*
X82550Y53086D01*
X82296Y52832D02*
X74976Y52832D01*
D16*
X99314Y97790D03*
D11*
X87884Y97790D01*
D16*
X201168Y88900D03*
D11*
X201168Y76168D01*
X140000Y15000D01*
D16*
X208026Y99060D03*
D11*
X208026Y57626D02*
X165400Y15000D01*
X208026Y57626D02*
X208026Y99060D01*
D18*
X243000Y176000D02*
X71000Y176000D01*
X58371Y163371D01*
X45925Y150925D01*
X37000Y142000D01*
X63800Y115200D01*
X63800Y15000D01*
D19*
X82550Y61214D02*
X108712Y61214D01*
D16*
X108712Y61214D03*
D19*
X114600Y55326D02*
X114600Y15000D01*
X114600Y55326D02*
X108712Y61214D01*
D16*
X159766Y129286D03*
D19*
X195834Y129286D01*
X246126Y78994D01*
D16*
X246126Y78994D03*
M02*
