G04 EAGLE Gerber RS-274X export*
G75*
%MOMM*%
%FSLAX34Y34*%
%LPD*%
%AMOC8*
5,1,8,0,0,1.08239X$1,22.5*%
G01*
%ADD10C,3.101600*%
%ADD11R,2.311400X0.711200*%
%ADD12R,2.301600X1.101600*%
%ADD13R,2.301600X1.201600*%
%ADD14R,1.451600X0.701600*%
%ADD15R,2.101600X1.301600*%
%ADD16C,0.419859*%
%ADD17C,0.326897*%
%ADD18R,1.752600X1.752600*%
%ADD19C,1.752600*%
%ADD20C,2.286000*%
%ADD21C,0.861566*%
%ADD22R,1.625600X2.641600*%
%ADD23R,2.301600X1.901600*%


D10*
X20000Y20000D03*
X20000Y223200D03*
D11*
X182640Y72390D03*
X182640Y85090D03*
X182640Y97790D03*
X182640Y110490D03*
X115330Y110490D03*
X115330Y97790D03*
X115330Y85090D03*
X115330Y72390D03*
D12*
X139000Y182474D03*
D13*
X139000Y164974D03*
D12*
X139000Y147474D03*
X181000Y147474D03*
D13*
X181000Y164974D03*
D12*
X181000Y182474D03*
D14*
X228000Y69000D03*
X228000Y79000D03*
X228000Y89000D03*
X228000Y99000D03*
D15*
X264750Y112000D03*
X264750Y56000D03*
D14*
X52000Y99000D03*
X52000Y89000D03*
X52000Y79000D03*
X52000Y69000D03*
D15*
X15250Y56000D03*
X15250Y112000D03*
D16*
X83887Y70926D02*
X87055Y70926D01*
X87055Y67758D01*
X83887Y67758D01*
X83887Y70926D01*
X78165Y70926D02*
X74997Y70926D01*
X78165Y70926D02*
X78165Y67758D01*
X74997Y67758D01*
X74997Y70926D01*
X84141Y60766D02*
X87309Y60766D01*
X87309Y57598D01*
X84141Y57598D01*
X84141Y60766D01*
X78419Y60766D02*
X75251Y60766D01*
X78419Y60766D02*
X78419Y57598D01*
X75251Y57598D01*
X75251Y60766D01*
X122749Y61274D02*
X125917Y61274D01*
X125917Y58106D01*
X122749Y58106D01*
X122749Y61274D01*
X117027Y61274D02*
X113859Y61274D01*
X117027Y61274D02*
X117027Y58106D01*
X113859Y58106D01*
X113859Y61274D01*
D17*
X118839Y163957D02*
X118839Y170595D01*
X118839Y163957D02*
X112201Y163957D01*
X112201Y170595D01*
X118839Y170595D01*
X118839Y167063D02*
X112201Y167063D01*
X112201Y170169D02*
X118839Y170169D01*
X118839Y179197D02*
X118839Y185835D01*
X118839Y179197D02*
X112201Y179197D01*
X112201Y185835D01*
X118839Y185835D01*
X118839Y182303D02*
X112201Y182303D01*
X112201Y185409D02*
X118839Y185409D01*
D18*
X101900Y215000D03*
D19*
X127300Y215000D03*
X152700Y215000D03*
X178100Y215000D03*
D20*
X37000Y142000D03*
X37000Y177000D03*
X243000Y176000D03*
X243000Y141000D03*
D21*
X181920Y233100D02*
X181920Y250900D01*
X181920Y233100D02*
X174280Y233100D01*
X174280Y250900D01*
X181920Y250900D01*
X181920Y241285D02*
X174280Y241285D01*
X174280Y249470D02*
X181920Y249470D01*
X156520Y250900D02*
X156520Y233100D01*
X148880Y233100D01*
X148880Y250900D01*
X156520Y250900D01*
X156520Y241285D02*
X148880Y241285D01*
X148880Y249470D02*
X156520Y249470D01*
X131120Y250900D02*
X131120Y233100D01*
X123480Y233100D01*
X123480Y250900D01*
X131120Y250900D01*
X131120Y241285D02*
X123480Y241285D01*
X123480Y249470D02*
X131120Y249470D01*
D22*
X101900Y242000D03*
D23*
X92000Y180500D03*
X92000Y129500D03*
D18*
X63800Y15000D03*
D19*
X89200Y15000D03*
X114600Y15000D03*
X140000Y15000D03*
X165400Y15000D03*
X190800Y15000D03*
X216200Y15000D03*
M02*
